<?xml version="1.0" encoding="UTF-8" standalone="no"?>
<!DOCTYPE svg PUBLIC "-//W3C//DTD SVG 1.1//EN" "http://www.w3.org/Graphics/SVG/1.1/DTD/svg11.dtd">
<svg width="100%" height="100%" viewBox="0 0 64 64" version="1.1" xmlns="http://www.w3.org/2000/svg" xmlns:xlink="http://www.w3.org/1999/xlink" xml:space="preserve" xmlns:serif="http://www.serif.com/" style="fill-rule:evenodd;clip-rule:evenodd;stroke-linecap:round;stroke-linejoin:round;stroke-miterlimit:1.5;">
    <g id="Excel-Icon" serif:id="Excel Icon" transform="matrix(0.0997083,0,0,0.0997083,-7.83099,2.14705)">
        <g id="Inside-Cover-Right" serif:id="Inside Cover Right">
            <g transform="matrix(8.16234,0,0,22.3669,-3032.28,-1798.27)">
                <rect x="423.365" y="84.161" width="35.477" height="19.273" style="fill:#fafafa;"/>
            </g>
            <g transform="matrix(10.531,0,0,9.43813,-3851.06,-2531.22)">
                <path d="M406.165,275.828L431.26,276.107L430.928,323.984L406.089,323.875L406.165,275.828Z" style="fill:#fafafa;stroke:#2e7d32;stroke-width:2.01px;"/>
            </g>
        </g>
        <g id="Writings">
            <g transform="matrix(1,0,0,1,-7.17688,2.09117)">
                <path d="M428.792,180.234L509.815,180.234" style="fill:none;stroke:#2e7d32;stroke-width:35.1px;"/>
            </g>
            <g transform="matrix(1,0,0,1,-7.17688,80.3519)">
                <path d="M428.792,180.234L509.815,180.234" style="fill:none;stroke:#2e7d32;stroke-width:35.1px;"/>
            </g>
            <g transform="matrix(1,0,0,1,-7.17688,158.613)">
                <path d="M428.792,180.234L509.815,180.234" style="fill:none;stroke:#2e7d32;stroke-width:35.1px;"/>
            </g>
            <g transform="matrix(1,0,0,1,-7.17688,236.873)">
                <path d="M428.792,180.234L509.815,180.234" style="fill:none;stroke:#2e7d32;stroke-width:35.1px;"/>
            </g>
            <path d="M571.758,181.256L620.743,181.256" style="fill:none;stroke:#2e7d32;stroke-width:35.1px;"/>
            <g transform="matrix(1,0,0,1,0,79.378)">
                <path d="M571.758,181.256L620.743,181.256" style="fill:none;stroke:#2e7d32;stroke-width:35.1px;"/>
            </g>
            <g transform="matrix(1,0,0,1,0,158.274)">
                <path d="M571.758,181.256L620.743,181.256" style="fill:none;stroke:#2e7d32;stroke-width:35.1px;"/>
            </g>
            <g transform="matrix(1,0,0,1,0,237.169)">
                <path d="M571.758,181.256L620.743,181.256" style="fill:none;stroke:#2e7d32;stroke-width:35.1px;"/>
            </g>
        </g>
        <path id="Left-Cover" serif:id="Left Cover" d="M425.44,16.609L99.188,75.177L99.279,517.778L425.08,582.197L425.44,16.609Z" style="fill:#2e7d32;stroke:#2e7d32;stroke-width:28px;"/>
    </g>
    <g transform="matrix(0.808414,0,0,0.808414,4.10575,7.20571)">
        <g transform="matrix(14,0,0,14,11.395,11.7126)">
            <path d="M0.55,-0.604L0.223,-0.604L0.223,-0.428L0.524,-0.428C0.546,-0.428 0.563,-0.423 0.573,-0.413C0.584,-0.403 0.59,-0.39 0.59,-0.374C0.59,-0.358 0.584,-0.344 0.574,-0.334C0.563,-0.324 0.546,-0.319 0.524,-0.319L0.223,-0.319L0.223,-0.115L0.561,-0.115C0.584,-0.115 0.601,-0.11 0.613,-0.099C0.624,-0.089 0.63,-0.075 0.63,-0.057C0.63,-0.04 0.624,-0.026 0.613,-0.016C0.601,-0.005 0.584,-0 0.561,-0L0.167,-0C0.135,-0 0.113,-0.007 0.099,-0.021C0.085,-0.035 0.078,-0.058 0.078,-0.089L0.078,-0.627C0.078,-0.648 0.081,-0.665 0.087,-0.678C0.094,-0.691 0.103,-0.701 0.116,-0.707C0.13,-0.713 0.146,-0.716 0.167,-0.716L0.55,-0.716C0.573,-0.716 0.59,-0.711 0.601,-0.7C0.613,-0.69 0.618,-0.677 0.618,-0.66C0.618,-0.643 0.613,-0.63 0.601,-0.619C0.59,-0.609 0.573,-0.604 0.55,-0.604Z" style="fill:#fafafa;fill-rule:nonzero;"/>
        </g>
    </g>
    <g transform="matrix(0.808414,0,0,0.808414,4.72193,16.5259)">
        <g transform="matrix(14,0,0,14,11.395,11.7126)">
            <path d="M0.052,-0.139L0.212,-0.373L0.077,-0.581C0.064,-0.601 0.055,-0.619 0.049,-0.633C0.042,-0.648 0.039,-0.661 0.039,-0.675C0.039,-0.688 0.045,-0.701 0.057,-0.712C0.07,-0.723 0.084,-0.728 0.102,-0.728C0.122,-0.728 0.138,-0.722 0.149,-0.71C0.16,-0.698 0.176,-0.676 0.196,-0.644L0.303,-0.47L0.418,-0.644C0.427,-0.659 0.435,-0.671 0.442,-0.682C0.449,-0.692 0.455,-0.701 0.461,-0.708C0.468,-0.714 0.475,-0.719 0.482,-0.723C0.49,-0.726 0.499,-0.728 0.509,-0.728C0.527,-0.728 0.542,-0.723 0.553,-0.712C0.565,-0.701 0.571,-0.688 0.571,-0.673C0.571,-0.651 0.558,-0.621 0.533,-0.584L0.392,-0.373L0.544,-0.139C0.558,-0.119 0.568,-0.102 0.574,-0.088C0.58,-0.075 0.583,-0.062 0.583,-0.05C0.583,-0.038 0.58,-0.028 0.575,-0.019C0.569,-0.009 0.561,-0.002 0.551,0.004C0.541,0.009 0.53,0.012 0.517,0.012C0.503,0.012 0.492,0.009 0.482,0.004C0.473,-0.002 0.465,-0.009 0.459,-0.018C0.454,-0.026 0.443,-0.042 0.427,-0.067L0.301,-0.265L0.167,-0.061C0.157,-0.045 0.149,-0.033 0.145,-0.027C0.14,-0.02 0.135,-0.014 0.129,-0.008C0.123,-0.002 0.115,0.003 0.107,0.007C0.098,0.01 0.089,0.012 0.077,0.012C0.06,0.012 0.045,0.007 0.033,-0.004C0.022,-0.015 0.016,-0.03 0.016,-0.051C0.016,-0.075 0.028,-0.104 0.052,-0.139Z" style="fill:#fafafa;fill-rule:nonzero;"/>
        </g>
    </g>
    <g transform="matrix(0.808414,0,0,0.808414,3.9372,26.0183)">
        <g transform="matrix(14,0,0,14,11.395,11.7126)">
            <path d="M0.688,-0.226C0.688,-0.203 0.682,-0.179 0.671,-0.152C0.66,-0.126 0.642,-0.1 0.618,-0.074C0.594,-0.048 0.563,-0.028 0.526,-0.012C0.488,0.004 0.445,0.012 0.395,0.012C0.357,0.012 0.323,0.009 0.292,0.001C0.261,-0.006 0.233,-0.017 0.208,-0.032C0.183,-0.047 0.159,-0.067 0.138,-0.092C0.119,-0.114 0.103,-0.139 0.09,-0.167C0.076,-0.195 0.066,-0.225 0.06,-0.256C0.053,-0.288 0.05,-0.321 0.05,-0.357C0.05,-0.415 0.058,-0.466 0.075,-0.512C0.092,-0.557 0.116,-0.596 0.147,-0.629C0.178,-0.661 0.215,-0.686 0.257,-0.703C0.299,-0.72 0.344,-0.728 0.391,-0.728C0.449,-0.728 0.501,-0.716 0.546,-0.693C0.591,-0.67 0.626,-0.642 0.65,-0.608C0.674,-0.574 0.686,-0.542 0.686,-0.511C0.686,-0.495 0.68,-0.48 0.668,-0.467C0.657,-0.455 0.643,-0.448 0.626,-0.448C0.607,-0.448 0.594,-0.453 0.584,-0.461C0.575,-0.47 0.565,-0.485 0.553,-0.507C0.534,-0.542 0.512,-0.569 0.487,-0.586C0.461,-0.604 0.43,-0.613 0.392,-0.613C0.333,-0.613 0.285,-0.59 0.25,-0.545C0.214,-0.5 0.197,-0.435 0.197,-0.352C0.197,-0.296 0.205,-0.25 0.22,-0.213C0.236,-0.176 0.258,-0.149 0.287,-0.13C0.315,-0.112 0.349,-0.103 0.387,-0.103C0.429,-0.103 0.464,-0.113 0.493,-0.134C0.522,-0.155 0.543,-0.185 0.558,-0.225C0.564,-0.244 0.572,-0.259 0.581,-0.271C0.59,-0.283 0.605,-0.289 0.625,-0.289C0.642,-0.289 0.657,-0.283 0.669,-0.271C0.682,-0.259 0.688,-0.244 0.688,-0.226Z" style="fill:#fafafa;fill-rule:nonzero;"/>
        </g>
    </g>
    <g transform="matrix(0.808414,0,0,0.808414,4.10575,35.3241)">
        <g transform="matrix(14,0,0,14,11.395,11.7126)">
            <path d="M0.55,-0.604L0.223,-0.604L0.223,-0.428L0.524,-0.428C0.546,-0.428 0.563,-0.423 0.573,-0.413C0.584,-0.403 0.59,-0.39 0.59,-0.374C0.59,-0.358 0.584,-0.344 0.574,-0.334C0.563,-0.324 0.546,-0.319 0.524,-0.319L0.223,-0.319L0.223,-0.115L0.561,-0.115C0.584,-0.115 0.601,-0.11 0.613,-0.099C0.624,-0.089 0.63,-0.075 0.63,-0.057C0.63,-0.04 0.624,-0.026 0.613,-0.016C0.601,-0.005 0.584,-0 0.561,-0L0.167,-0C0.135,-0 0.113,-0.007 0.099,-0.021C0.085,-0.035 0.078,-0.058 0.078,-0.089L0.078,-0.627C0.078,-0.648 0.081,-0.665 0.087,-0.678C0.094,-0.691 0.103,-0.701 0.116,-0.707C0.13,-0.713 0.146,-0.716 0.167,-0.716L0.55,-0.716C0.573,-0.716 0.59,-0.711 0.601,-0.7C0.613,-0.69 0.618,-0.677 0.618,-0.66C0.618,-0.643 0.613,-0.63 0.601,-0.619C0.59,-0.609 0.573,-0.604 0.55,-0.604Z" style="fill:#fafafa;fill-rule:nonzero;"/>
        </g>
    </g>
    <g transform="matrix(0.808414,0,0,0.808414,4.36548,44.6747)">
        <g transform="matrix(14,0,0,14,11.395,11.7126)">
            <path d="M0.22,-0.64L0.22,-0.119L0.514,-0.119C0.538,-0.119 0.556,-0.113 0.568,-0.102C0.581,-0.091 0.587,-0.076 0.587,-0.059C0.587,-0.042 0.581,-0.027 0.568,-0.016C0.556,-0.005 0.538,-0 0.514,-0L0.164,-0C0.132,-0 0.11,-0.007 0.096,-0.021C0.082,-0.035 0.075,-0.058 0.075,-0.089L0.075,-0.64C0.075,-0.669 0.082,-0.691 0.095,-0.706C0.108,-0.721 0.125,-0.728 0.147,-0.728C0.169,-0.728 0.186,-0.721 0.2,-0.706C0.213,-0.692 0.22,-0.67 0.22,-0.64Z" style="fill:#fafafa;fill-rule:nonzero;"/>
        </g>
    </g>
</svg>
