<?xml version="1.0" encoding="UTF-8" standalone="no"?>
<!DOCTYPE svg PUBLIC "-//W3C//DTD SVG 1.1//EN" "http://www.w3.org/Graphics/SVG/1.1/DTD/svg11.dtd">
<svg width="100%" height="100%" viewBox="0 0 64 64" version="1.1" xmlns="http://www.w3.org/2000/svg" xmlns:xlink="http://www.w3.org/1999/xlink" xml:space="preserve" xmlns:serif="http://www.serif.com/" style="fill-rule:evenodd;clip-rule:evenodd;stroke-linecap:round;stroke-linejoin:round;stroke-miterlimit:1.5;">
    <g id="Lost-Icon" serif:id="Lost Icon" transform="matrix(0.94106,0,0,0.94106,-344.822,-250.237)">
        <g id="Left-Book-Cover" serif:id="Left Book Cover" transform="matrix(1.00305,0,0,1,-1.12363,0)">
            <path d="M405.066,269.858L368.993,278.11L368.9,323.959L404.661,330.243L405.066,269.858Z" style="fill:#64798a;stroke:#64798a;stroke-width:2.12px;"/>
        </g>
        <g id="Right-Inside-Cover" serif:id="Right Inside Cover" transform="matrix(1,0,0,1,0,0.144635)">
            <g transform="matrix(1.11579,0,0,1,-49.7771,0)">
                <path d="M406.165,275.828L431.26,276.107L430.928,323.984L406.089,323.875L406.165,275.828Z" style="fill:#fafafa;stroke:#64798a;stroke-width:2.01px;"/>
            </g>
            <g transform="matrix(1.01814,0,0,0.99241,375.01,271.598)">
                <path d="M45.241,28.763L53.055,44.391L37.427,44.391L45.241,28.763Z" style="fill:#3ea69b;stroke:#3ea69b;stroke-width:1.5px;"/>
            </g>
            <g transform="matrix(1.01664,0,0,0.990955,367.341,271.716)">
                <path d="M45.241,28.763L53.055,44.391L37.427,44.391L45.241,28.763Z" style="fill:#44c4a1;stroke:#44c4a1;stroke-width:1.5px;"/>
            </g>
            <g transform="matrix(1.06263,0,0,1.06263,366.477,270.246)">
                <circle cx="51.741" cy="19.364" r="6.018" style="fill:#f6c358;stroke:#fbd160;stroke-width:1.5px;"/>
            </g>
        </g>
        <g id="Image" transform="matrix(1.18748,0,0,1.18748,-48.123,-66.9449)">
            <g transform="matrix(0.41101,0,0,0.41101,360.657,283.165)">
                <g transform="matrix(24.776,0,0,24.776,8.37327,30.2371)">
                    <path d="M0.084,-0.076L0.084,-0.64C0.084,-0.669 0.091,-0.691 0.104,-0.706C0.117,-0.721 0.135,-0.728 0.156,-0.728C0.178,-0.728 0.195,-0.721 0.209,-0.706C0.222,-0.692 0.229,-0.67 0.229,-0.64L0.229,-0.076C0.229,-0.047 0.222,-0.024 0.209,-0.01C0.195,0.005 0.178,0.012 0.156,0.012C0.135,0.012 0.118,0.005 0.104,-0.01C0.091,-0.025 0.084,-0.047 0.084,-0.076Z" style="fill:#fff;fill-rule:nonzero;"/>
                </g>
            </g>
            <g transform="matrix(0.41101,0,0,0.41101,358.005,291.934)">
                <g transform="matrix(24.776,0,0,24.776,8.37327,30.2371)">
                    <path d="M0.32,-0.108L0.205,-0.564L0.205,-0.07C0.205,-0.042 0.199,-0.022 0.187,-0.008C0.175,0.005 0.158,0.012 0.138,0.012C0.119,0.012 0.103,0.005 0.09,-0.008C0.078,-0.022 0.072,-0.042 0.072,-0.07L0.072,-0.636C0.072,-0.667 0.08,-0.689 0.096,-0.699C0.112,-0.71 0.134,-0.716 0.162,-0.716L0.207,-0.716C0.234,-0.716 0.254,-0.713 0.266,-0.708C0.278,-0.704 0.287,-0.695 0.293,-0.682C0.299,-0.669 0.306,-0.649 0.313,-0.62L0.417,-0.228L0.521,-0.62C0.528,-0.649 0.535,-0.669 0.541,-0.682C0.547,-0.695 0.556,-0.704 0.568,-0.708C0.58,-0.713 0.6,-0.716 0.627,-0.716L0.672,-0.716C0.7,-0.716 0.722,-0.71 0.738,-0.699C0.754,-0.689 0.762,-0.667 0.762,-0.636L0.762,-0.07C0.762,-0.042 0.756,-0.022 0.744,-0.008C0.732,0.005 0.715,0.012 0.695,0.012C0.676,0.012 0.66,0.005 0.647,-0.008C0.635,-0.022 0.629,-0.042 0.629,-0.07L0.629,-0.564L0.514,-0.108C0.507,-0.078 0.501,-0.057 0.496,-0.043C0.491,-0.029 0.482,-0.016 0.47,-0.005C0.457,0.007 0.439,0.012 0.417,0.012C0.4,0.012 0.386,0.009 0.374,0.001C0.362,-0.006 0.353,-0.015 0.347,-0.027C0.34,-0.038 0.335,-0.051 0.331,-0.065C0.328,-0.079 0.324,-0.093 0.32,-0.108Z" style="fill:#fff;fill-rule:nonzero;"/>
                </g>
            </g>
            <g transform="matrix(0.41101,0,0,0.41101,358.596,300.631)">
                <g transform="matrix(24.776,0,0,24.776,8.37327,30.2371)">
                    <path d="M0.536,-0.081L0.502,-0.171L0.211,-0.171L0.177,-0.079C0.163,-0.043 0.152,-0.019 0.143,-0.007C0.133,0.006 0.118,0.012 0.096,0.012C0.078,0.012 0.062,0.006 0.048,-0.008C0.034,-0.021 0.027,-0.036 0.027,-0.053C0.027,-0.063 0.028,-0.073 0.032,-0.083C0.035,-0.094 0.04,-0.108 0.048,-0.127L0.231,-0.592C0.236,-0.605 0.242,-0.621 0.25,-0.64C0.257,-0.659 0.265,-0.674 0.273,-0.687C0.281,-0.699 0.292,-0.709 0.306,-0.717C0.319,-0.724 0.336,-0.728 0.356,-0.728C0.376,-0.728 0.393,-0.724 0.406,-0.717C0.42,-0.709 0.431,-0.699 0.439,-0.687C0.448,-0.675 0.455,-0.662 0.46,-0.648C0.466,-0.634 0.473,-0.616 0.482,-0.593L0.669,-0.131C0.684,-0.096 0.691,-0.07 0.691,-0.054C0.691,-0.038 0.684,-0.022 0.67,-0.009C0.656,0.005 0.64,0.012 0.62,0.012C0.609,0.012 0.599,0.01 0.591,0.006C0.583,0.002 0.576,-0.003 0.57,-0.01C0.565,-0.017 0.559,-0.028 0.552,-0.043C0.546,-0.057 0.541,-0.07 0.536,-0.081ZM0.249,-0.28L0.463,-0.28L0.355,-0.575L0.249,-0.28Z" style="fill:#fff;fill-rule:nonzero;"/>
                </g>
            </g>
            <g transform="matrix(0.41101,0,0,0.41101,358.276,309.328)">
                <g transform="matrix(24.776,0,0,24.776,8.37327,30.2371)">
                    <path d="M0.732,-0.291L0.732,-0.154C0.732,-0.136 0.73,-0.121 0.727,-0.11C0.723,-0.099 0.716,-0.089 0.707,-0.081C0.697,-0.072 0.685,-0.063 0.67,-0.055C0.627,-0.032 0.585,-0.015 0.545,-0.004C0.505,0.007 0.461,0.012 0.414,0.012C0.359,0.012 0.309,0.004 0.264,-0.013C0.218,-0.03 0.18,-0.055 0.148,-0.087C0.116,-0.119 0.092,-0.158 0.074,-0.204C0.057,-0.25 0.049,-0.301 0.049,-0.358C0.049,-0.414 0.057,-0.465 0.074,-0.511C0.09,-0.557 0.115,-0.596 0.147,-0.628C0.179,-0.661 0.218,-0.685 0.265,-0.702C0.311,-0.719 0.363,-0.728 0.422,-0.728C0.47,-0.728 0.513,-0.722 0.55,-0.709C0.587,-0.696 0.617,-0.68 0.64,-0.66C0.663,-0.641 0.681,-0.62 0.692,-0.598C0.704,-0.576 0.71,-0.557 0.71,-0.54C0.71,-0.522 0.703,-0.506 0.69,-0.493C0.676,-0.481 0.66,-0.474 0.641,-0.474C0.631,-0.474 0.621,-0.477 0.611,-0.481C0.601,-0.486 0.593,-0.493 0.587,-0.502C0.569,-0.53 0.554,-0.551 0.542,-0.565C0.529,-0.58 0.512,-0.592 0.491,-0.602C0.47,-0.611 0.444,-0.616 0.411,-0.616C0.378,-0.616 0.348,-0.61 0.321,-0.599C0.295,-0.587 0.272,-0.571 0.254,-0.549C0.235,-0.527 0.221,-0.5 0.211,-0.468C0.201,-0.436 0.196,-0.401 0.196,-0.362C0.196,-0.278 0.215,-0.213 0.254,-0.168C0.292,-0.123 0.346,-0.1 0.415,-0.1C0.449,-0.1 0.48,-0.104 0.51,-0.113C0.539,-0.122 0.569,-0.135 0.599,-0.151L0.599,-0.267L0.487,-0.267C0.46,-0.267 0.439,-0.271 0.426,-0.279C0.412,-0.287 0.405,-0.301 0.405,-0.321C0.405,-0.337 0.411,-0.35 0.422,-0.36C0.434,-0.371 0.449,-0.376 0.469,-0.376L0.634,-0.376C0.654,-0.376 0.671,-0.374 0.685,-0.371C0.699,-0.367 0.71,-0.359 0.719,-0.347C0.728,-0.334 0.732,-0.316 0.732,-0.291Z" style="fill:#fff;fill-rule:nonzero;"/>
                </g>
            </g>
            <g transform="matrix(0.41101,0,0,0.41101,358.646,317.844)">
                <g transform="matrix(24.776,0,0,24.776,8.37327,30.2371)">
                    <path d="M0.55,-0.604L0.223,-0.604L0.223,-0.428L0.524,-0.428C0.546,-0.428 0.563,-0.423 0.573,-0.413C0.584,-0.403 0.59,-0.39 0.59,-0.374C0.59,-0.358 0.584,-0.344 0.574,-0.334C0.563,-0.324 0.546,-0.319 0.524,-0.319L0.223,-0.319L0.223,-0.115L0.561,-0.115C0.584,-0.115 0.601,-0.11 0.613,-0.099C0.624,-0.089 0.63,-0.075 0.63,-0.057C0.63,-0.04 0.624,-0.026 0.613,-0.016C0.601,-0.005 0.584,-0 0.561,-0L0.167,-0C0.135,-0 0.113,-0.007 0.099,-0.021C0.085,-0.035 0.078,-0.058 0.078,-0.089L0.078,-0.627C0.078,-0.648 0.081,-0.665 0.087,-0.678C0.094,-0.691 0.103,-0.701 0.116,-0.707C0.13,-0.713 0.146,-0.716 0.167,-0.716L0.55,-0.716C0.573,-0.716 0.59,-0.711 0.601,-0.7C0.613,-0.69 0.618,-0.677 0.618,-0.66C0.618,-0.643 0.613,-0.63 0.601,-0.619C0.59,-0.609 0.573,-0.604 0.55,-0.604Z" style="fill:#fff;fill-rule:nonzero;"/>
                </g>
            </g>
        </g>
    </g>
</svg>
