<?xml version="1.0" encoding="UTF-8" standalone="no"?>
<!DOCTYPE svg PUBLIC "-//W3C//DTD SVG 1.1//EN" "http://www.w3.org/Graphics/SVG/1.1/DTD/svg11.dtd">
<svg width="100%" height="100%" viewBox="0 0 64 64" version="1.1" xmlns="http://www.w3.org/2000/svg" xmlns:xlink="http://www.w3.org/1999/xlink" xml:space="preserve" xmlns:serif="http://www.serif.com/" style="fill-rule:evenodd;clip-rule:evenodd;stroke-linecap:round;stroke-linejoin:round;stroke-miterlimit:1.5;">
    <g id="Word-Icon" serif:id="Word Icon" transform="matrix(0.94106,0,0,0.94106,-344.822,-250.237)">
        <g id="Left-Book-Cover" serif:id="Left Book Cover" transform="matrix(1.00305,0,0,1,-1.12363,0)">
            <path d="M405.066,269.858L368.993,278.11L368.9,323.959L404.661,330.243L405.066,269.858Z" style="fill:#8fcdbe;stroke:#8fcdbe;stroke-width:2.12px;"/>
        </g>
        <g id="Right-Inside-Cover" serif:id="Right Inside Cover">
            <g transform="matrix(1.11579,0,0,1,-49.9352,0)">
                <path d="M406.165,275.828L431.26,276.107L430.928,323.984L406.089,323.875L406.165,275.828Z" style="fill:#fafafa;stroke:#8fcdbe;stroke-width:2.01px;"/>
            </g>
            <g id="Lines">
                <g transform="matrix(1.01591,-0.00049178,-0.000446753,0.999997,-5.2684,5.19161)">
                    <g id="Book-Lines" serif:id="Book Lines">
                        <g id="Layer1">
                            <path d="M425.988,283.879L406.267,283.754" style="fill:none;stroke:#8fcdbe;stroke-width:3.5px;"/>
                        </g>
                    </g>
                </g>
                <g transform="matrix(1.01591,-0.00049178,-0.000446753,0.999997,-5.2684,18.0282)">
                    <g id="Book-Lines1" serif:id="Book Lines">
                        <g id="Layer11" serif:id="Layer1">
                            <path d="M425.988,283.879L406.267,283.754" style="fill:none;stroke:#8fcdbe;stroke-width:3.5px;"/>
                        </g>
                    </g>
                </g>
                <g id="Book-Lines2" serif:id="Book Lines" transform="matrix(1.10079,0,0,1,-39.657,11.447)">
                    <g transform="matrix(0.922891,-0.00049178,-0.000405848,0.999997,31.24,0.205957)">
                        <g id="Layer12" serif:id="Layer1">
                            <path d="M425.988,283.879L406.267,283.754" style="fill:none;stroke:#8fcdbe;stroke-width:3.5px;"/>
                        </g>
                    </g>
                    <g id="Layer2">
                    </g>
                    <g id="Layer3">
                    </g>
                    <g id="Layer4">
                    </g>
                    <g id="Layer5">
                    </g>
                </g>
                <g id="Book-Lines3" serif:id="Book Lines" transform="matrix(1.10079,0,0,1,-39.657,24.2835)">
                    <g transform="matrix(0.922891,-0.00049178,-0.000405848,0.999997,31.24,0.205957)">
                        <g id="Layer13" serif:id="Layer1">
                            <path d="M425.988,283.879L406.267,283.754" style="fill:none;stroke:#8fcdbe;stroke-width:3.5px;"/>
                        </g>
                    </g>
                    <g id="Layer21" serif:id="Layer2">
                    </g>
                    <g id="Layer31" serif:id="Layer3">
                    </g>
                    <g id="Layer41" serif:id="Layer4">
                    </g>
                    <g id="Layer51" serif:id="Layer5">
                    </g>
                </g>
            </g>
        </g>
        <g id="WORD">
            <g transform="matrix(0.601372,0,0,0.601372,375.736,275.578)">
                <g transform="matrix(24.776,0,0,24.776,8.37327,30.2371)">
                    <path d="M0.273,-0.306L0.222,-0.306L0.222,-0.076C0.222,-0.046 0.215,-0.024 0.202,-0.009C0.189,0.005 0.171,0.012 0.15,0.012C0.127,0.012 0.109,0.005 0.096,-0.01C0.083,-0.025 0.077,-0.047 0.077,-0.076L0.077,-0.627C0.077,-0.658 0.084,-0.681 0.098,-0.695C0.112,-0.709 0.135,-0.716 0.166,-0.716L0.402,-0.716C0.434,-0.716 0.462,-0.714 0.485,-0.712C0.508,-0.709 0.529,-0.703 0.548,-0.695C0.57,-0.685 0.59,-0.672 0.607,-0.654C0.625,-0.637 0.638,-0.616 0.647,-0.593C0.656,-0.57 0.66,-0.545 0.66,-0.519C0.66,-0.466 0.645,-0.423 0.615,-0.391C0.585,-0.359 0.539,-0.337 0.478,-0.323C0.504,-0.31 0.528,-0.289 0.552,-0.263C0.575,-0.236 0.596,-0.208 0.615,-0.177C0.633,-0.147 0.647,-0.12 0.657,-0.096C0.668,-0.072 0.673,-0.055 0.673,-0.046C0.673,-0.036 0.67,-0.027 0.664,-0.018C0.658,-0.009 0.65,-0.001 0.639,0.004C0.629,0.01 0.617,0.012 0.603,0.012C0.587,0.012 0.573,0.008 0.562,0.001C0.551,-0.007 0.541,-0.017 0.533,-0.028C0.525,-0.04 0.515,-0.057 0.501,-0.08L0.443,-0.177C0.422,-0.212 0.403,-0.239 0.387,-0.258C0.371,-0.276 0.354,-0.289 0.337,-0.296C0.32,-0.303 0.299,-0.306 0.273,-0.306ZM0.356,-0.607L0.222,-0.607L0.222,-0.41L0.352,-0.41C0.387,-0.41 0.416,-0.413 0.44,-0.419C0.464,-0.425 0.482,-0.435 0.494,-0.45C0.507,-0.464 0.513,-0.484 0.513,-0.51C0.513,-0.53 0.508,-0.547 0.498,-0.562C0.488,-0.577 0.474,-0.589 0.456,-0.596C0.439,-0.603 0.406,-0.607 0.356,-0.607Z" style="fill:#fafafa;fill-rule:nonzero;"/>
                </g>
            </g>
            <g transform="matrix(0.601372,0,0,0.601372,376.66,287.3)">
                <g transform="matrix(24.776,0,0,24.776,8.37327,30.2371)">
                    <path d="M0.543,-0.596L0.385,-0.596L0.385,-0.076C0.385,-0.046 0.378,-0.024 0.365,-0.01C0.351,0.005 0.334,0.012 0.313,0.012C0.292,0.012 0.274,0.005 0.26,-0.01C0.247,-0.024 0.24,-0.047 0.24,-0.076L0.24,-0.596L0.082,-0.596C0.057,-0.596 0.039,-0.602 0.027,-0.613C0.015,-0.623 0.009,-0.638 0.009,-0.656C0.009,-0.674 0.015,-0.689 0.028,-0.7C0.04,-0.71 0.058,-0.716 0.082,-0.716L0.543,-0.716C0.568,-0.716 0.587,-0.71 0.599,-0.699C0.611,-0.688 0.617,-0.674 0.617,-0.656C0.617,-0.638 0.611,-0.623 0.599,-0.613C0.586,-0.602 0.568,-0.596 0.543,-0.596Z" style="fill:#fafafa;fill-rule:nonzero;"/>
                </g>
            </g>
            <g transform="matrix(0.601372,0,0,0.601372,376.485,298.896)">
                <g transform="matrix(24.776,0,0,24.776,8.37327,30.2371)">
                    <path d="M0.506,-0.604L0.22,-0.604L0.22,-0.421L0.459,-0.421C0.481,-0.421 0.498,-0.416 0.509,-0.406C0.519,-0.396 0.525,-0.383 0.525,-0.366C0.525,-0.35 0.519,-0.336 0.508,-0.327C0.497,-0.317 0.481,-0.312 0.459,-0.312L0.22,-0.312L0.22,-0.076C0.22,-0.046 0.213,-0.024 0.2,-0.01C0.186,0.005 0.169,0.012 0.148,0.012C0.126,0.012 0.109,0.005 0.095,-0.01C0.082,-0.024 0.075,-0.047 0.075,-0.076L0.075,-0.627C0.075,-0.648 0.078,-0.665 0.084,-0.678C0.091,-0.691 0.1,-0.701 0.114,-0.707C0.127,-0.713 0.144,-0.716 0.164,-0.716L0.506,-0.716C0.529,-0.716 0.546,-0.711 0.557,-0.7C0.569,-0.69 0.574,-0.677 0.574,-0.66C0.574,-0.643 0.569,-0.63 0.557,-0.619C0.546,-0.609 0.529,-0.604 0.506,-0.604Z" style="fill:#fafafa;fill-rule:nonzero;"/>
                </g>
            </g>
        </g>
    </g>
</svg>
