<?xml version="1.0" encoding="UTF-8" standalone="no"?>
<!DOCTYPE svg PUBLIC "-//W3C//DTD SVG 1.1//EN" "http://www.w3.org/Graphics/SVG/1.1/DTD/svg11.dtd">
<svg width="100%" height="100%" viewBox="0 0 64 64" version="1.1" xmlns="http://www.w3.org/2000/svg" xmlns:xlink="http://www.w3.org/1999/xlink" xml:space="preserve" xmlns:serif="http://www.serif.com/" style="fill-rule:evenodd;clip-rule:evenodd;stroke-linecap:round;stroke-linejoin:round;stroke-miterlimit:1.5;">
    <g id="jar-java-Icon" serif:id="jar java Icon" transform="matrix(0.94106,0,0,0.94106,-344.822,-250.237)">
        <g id="Left-Book-Cover" serif:id="Left Book Cover" transform="matrix(1.00305,0,0,1,-1.12363,0)">
            <path d="M405.066,269.858L368.993,278.11L368.9,323.959L404.661,330.243L405.066,269.858Z" style="fill:#ff4c3b;stroke:#ff4c3b;stroke-width:2.12px;"/>
        </g>
        <g transform="matrix(1.11579,0,0,1,-49.9352,0)">
            <g id="Right-Inside-Cover" serif:id="Right Inside Cover">
                <path d="M406.165,275.828L431.26,276.107L430.928,323.984L406.089,323.875L406.165,275.828Z" style="fill:#fafafa;stroke:#ff4c3b;stroke-width:2.01px;"/>
            </g>
        </g>
        <g id="MP3">
            <g transform="matrix(0.601372,0,0,0.601372,376.303,275.578)">
                <g transform="matrix(24.776,0,0,24.776,10.1819,30.2371)">
                    <path d="M0.494,-0.64L0.494,-0.265C0.494,-0.233 0.493,-0.205 0.49,-0.182C0.487,-0.159 0.481,-0.136 0.471,-0.113C0.455,-0.073 0.428,-0.043 0.391,-0.021C0.353,0.001 0.308,0.012 0.254,0.012C0.205,0.012 0.165,0.005 0.133,-0.011C0.1,-0.026 0.074,-0.051 0.054,-0.085C0.044,-0.103 0.035,-0.124 0.029,-0.148C0.022,-0.172 0.019,-0.194 0.019,-0.216C0.019,-0.239 0.025,-0.256 0.038,-0.268C0.051,-0.28 0.067,-0.286 0.087,-0.286C0.106,-0.286 0.121,-0.281 0.13,-0.27C0.14,-0.258 0.148,-0.241 0.153,-0.218C0.158,-0.193 0.164,-0.173 0.169,-0.158C0.175,-0.143 0.184,-0.13 0.197,-0.119C0.21,-0.108 0.229,-0.103 0.253,-0.103C0.317,-0.103 0.349,-0.15 0.349,-0.244L0.349,-0.64C0.349,-0.669 0.356,-0.691 0.368,-0.706C0.381,-0.721 0.399,-0.728 0.421,-0.728C0.443,-0.728 0.461,-0.721 0.474,-0.706C0.488,-0.691 0.494,-0.669 0.494,-0.64Z" style="fill:#fafafa;fill-rule:nonzero;"/>
                </g>
            </g>
            <g transform="matrix(0.601372,0,0,0.601372,376.569,287.3)">
                <g transform="matrix(24.776,0,0,24.776,7.20584,30.2371)">
                    <path d="M0.536,-0.081L0.502,-0.171L0.211,-0.171L0.177,-0.079C0.163,-0.043 0.152,-0.019 0.143,-0.007C0.133,0.006 0.118,0.012 0.096,0.012C0.078,0.012 0.062,0.006 0.048,-0.008C0.034,-0.021 0.027,-0.036 0.027,-0.053C0.027,-0.063 0.028,-0.073 0.032,-0.083C0.035,-0.094 0.04,-0.108 0.048,-0.127L0.231,-0.592C0.236,-0.605 0.242,-0.621 0.25,-0.64C0.257,-0.659 0.265,-0.674 0.273,-0.687C0.281,-0.699 0.292,-0.709 0.306,-0.717C0.319,-0.724 0.336,-0.728 0.356,-0.728C0.376,-0.728 0.393,-0.724 0.406,-0.717C0.42,-0.709 0.431,-0.699 0.439,-0.687C0.448,-0.675 0.455,-0.662 0.46,-0.648C0.466,-0.634 0.473,-0.616 0.482,-0.593L0.669,-0.131C0.684,-0.096 0.691,-0.07 0.691,-0.054C0.691,-0.038 0.684,-0.022 0.67,-0.009C0.656,0.005 0.64,0.012 0.62,0.012C0.609,0.012 0.599,0.01 0.591,0.006C0.583,0.002 0.576,-0.003 0.57,-0.01C0.565,-0.017 0.559,-0.028 0.552,-0.043C0.546,-0.057 0.541,-0.07 0.536,-0.081ZM0.249,-0.28L0.463,-0.28L0.355,-0.575L0.249,-0.28Z" style="fill:#fafafa;fill-rule:nonzero;"/>
                </g>
            </g>
            <g transform="matrix(0.601372,0,0,0.601372,376.485,298.896)">
                <g transform="matrix(24.776,0,0,24.776,6.94574,30.2371)">
                    <path d="M0.273,-0.306L0.222,-0.306L0.222,-0.076C0.222,-0.046 0.215,-0.024 0.202,-0.009C0.189,0.005 0.171,0.012 0.15,0.012C0.127,0.012 0.109,0.005 0.096,-0.01C0.083,-0.025 0.077,-0.047 0.077,-0.076L0.077,-0.627C0.077,-0.658 0.084,-0.681 0.098,-0.695C0.112,-0.709 0.135,-0.716 0.166,-0.716L0.402,-0.716C0.434,-0.716 0.462,-0.714 0.485,-0.712C0.508,-0.709 0.529,-0.703 0.548,-0.695C0.57,-0.685 0.59,-0.672 0.607,-0.654C0.625,-0.637 0.638,-0.616 0.647,-0.593C0.656,-0.57 0.66,-0.545 0.66,-0.519C0.66,-0.466 0.645,-0.423 0.615,-0.391C0.585,-0.359 0.539,-0.337 0.478,-0.323C0.504,-0.31 0.528,-0.289 0.552,-0.263C0.575,-0.236 0.596,-0.208 0.615,-0.177C0.633,-0.147 0.647,-0.12 0.657,-0.096C0.668,-0.072 0.673,-0.055 0.673,-0.046C0.673,-0.036 0.67,-0.027 0.664,-0.018C0.658,-0.009 0.65,-0.001 0.639,0.004C0.629,0.01 0.617,0.012 0.603,0.012C0.587,0.012 0.573,0.008 0.562,0.001C0.551,-0.007 0.541,-0.017 0.533,-0.028C0.525,-0.04 0.515,-0.057 0.501,-0.08L0.443,-0.177C0.422,-0.212 0.403,-0.239 0.387,-0.258C0.371,-0.276 0.354,-0.289 0.337,-0.296C0.32,-0.303 0.299,-0.306 0.273,-0.306ZM0.356,-0.607L0.222,-0.607L0.222,-0.41L0.352,-0.41C0.387,-0.41 0.416,-0.413 0.44,-0.419C0.464,-0.425 0.482,-0.435 0.494,-0.45C0.507,-0.464 0.513,-0.484 0.513,-0.51C0.513,-0.53 0.508,-0.547 0.498,-0.562C0.488,-0.577 0.474,-0.589 0.456,-0.596C0.439,-0.603 0.406,-0.607 0.356,-0.607Z" style="fill:#fafafa;fill-rule:nonzero;"/>
                </g>
            </g>
        </g>
        <g id="Java" transform="matrix(1.21523,0,0,1.21523,358.313,259.429)">
            <path d="M57.927,42.586C57.927,42.586 57.418,43.032 57.118,43.181C56.725,43.378 56.098,43.615 55.566,43.767C54.889,43.961 53.906,44.22 53.056,44.345C52.182,44.473 51.235,44.524 50.321,44.538C48.718,44.563 44.754,44.526 43.437,44.495C43.095,44.487 42.419,44.352 42.419,44.352C42.419,44.352 43.242,44.657 43.669,44.753C44.139,44.859 44.711,44.931 45.237,44.987C45.782,45.044 46.372,45.087 46.941,45.098C47.778,45.114 49.279,45.115 50.26,45.084C51.118,45.057 51.976,45.013 52.828,44.912C53.741,44.805 55.052,44.617 55.733,44.44C56.158,44.329 56.576,44.134 56.912,43.851C57.278,43.542 57.927,42.586 57.927,42.586Z" style="fill:#ff4c3b;stroke:#ff4c3b;stroke-width:0.15px;"/>
            <path d="M41.981,41.035C41.981,41.035 40.731,41.047 40.176,41.137C39.653,41.221 38.957,41.421 38.647,41.571C38.476,41.654 38.369,41.894 38.317,42.038C38.272,42.163 38.248,42.335 38.335,42.435C38.476,42.597 38.857,42.872 39.163,43.012C39.512,43.173 39.996,43.318 40.431,43.396C41.017,43.501 41.928,43.6 42.682,43.642C43.734,43.7 45.438,43.752 46.742,43.747C47.996,43.742 49.338,43.707 50.502,43.611C51.584,43.521 52.819,43.35 53.73,43.169C54.491,43.018 55.475,42.729 55.966,42.525C56.248,42.409 56.532,42.112 56.676,41.948C56.771,41.839 56.851,41.667 56.828,41.54C56.806,41.413 56.542,41.184 56.542,41.184C56.542,41.184 56.6,41.495 56.505,41.594C56.386,41.718 56.071,41.868 55.825,41.929C55.082,42.114 53.321,42.546 52.044,42.706C50.687,42.875 49.087,42.921 47.683,42.944C46.33,42.967 44.652,42.906 43.624,42.846C42.915,42.804 42.066,42.683 41.511,42.582C41.095,42.506 40.572,42.338 40.292,42.237C40.126,42.177 39.893,42.075 39.831,41.975C39.77,41.875 39.834,41.712 39.924,41.637C40.042,41.538 40.328,41.445 40.542,41.383C40.885,41.282 41.981,41.035 41.981,41.035Z" style="fill:#ff4c3b;stroke:#ff4c3b;stroke-width:0.15px;"/>
            <path d="M44.29,39.044C44.29,39.044 43.669,39.241 43.487,39.382C43.332,39.502 43.212,39.74 43.197,39.893C43.182,40.042 43.271,40.216 43.399,40.296C43.583,40.41 43.986,40.551 44.3,40.579C44.979,40.638 46.557,40.68 47.471,40.654C48.245,40.632 49.217,40.509 49.782,40.424C50.149,40.368 50.527,40.308 50.858,40.14C51.252,39.94 52.144,39.224 52.144,39.224C52.144,39.224 50.993,39.422 50.413,39.487C49.77,39.559 48.997,39.64 48.286,39.659C47.325,39.684 45.303,39.674 44.644,39.637C44.521,39.63 44.39,39.538 44.331,39.439C44.272,39.34 44.29,39.044 44.29,39.044Z" style="fill:#ff4c3b;stroke:#ff4c3b;stroke-width:0.15px;"/>
            <path d="M43.654,36.154C43.654,36.154 42.738,36.547 42.546,36.727C42.422,36.843 42.407,37.092 42.5,37.235C42.601,37.39 42.915,37.555 43.153,37.659C43.494,37.809 44.061,38.061 44.546,38.132C45.201,38.226 46.264,38.259 47.083,38.227C47.88,38.197 48.766,38.07 49.459,37.941C50.063,37.829 50.837,37.578 51.238,37.456C51.452,37.391 51.672,37.329 51.862,37.212C52.096,37.068 52.64,36.591 52.64,36.591C52.64,36.591 50.532,36.98 49.568,37.1C48.668,37.212 47.713,37.302 46.855,37.313C46.041,37.323 44.97,37.234 44.419,37.163C44.115,37.124 43.724,36.979 43.544,36.885C43.441,36.832 43.322,36.718 43.339,36.603C43.358,36.481 43.654,36.154 43.654,36.154Z" style="fill:#ff4c3b;stroke:#ff4c3b;stroke-width:0.15px;"/>
            <path d="M54.447,33.109C54.447,33.109 55.218,33.147 55.566,33.262C55.913,33.378 56.319,33.573 56.534,33.804C56.739,34.024 56.832,34.393 56.858,34.647C56.881,34.879 56.815,35.131 56.687,35.327C56.436,35.71 55.779,36.523 55.348,36.95C54.979,37.315 54.104,37.886 54.104,37.886C54.104,37.886 55.809,37.381 56.459,37.041C57.036,36.74 57.683,36.239 58.004,35.849C58.261,35.537 58.368,35.077 58.387,34.699C58.406,34.321 58.279,33.878 58.119,33.581C57.968,33.3 57.698,33.07 57.429,32.917C57.16,32.764 56.822,32.643 56.503,32.663C56.006,32.695 54.447,33.109 54.447,33.109Z" style="fill:#ff4c3b;stroke:#ff4c3b;stroke-width:0.15px;"/>
            <path d="M44.61,32.96C44.61,32.96 43.145,33.03 42.546,33.128C42.023,33.214 41.351,33.405 41.012,33.55C40.806,33.638 40.581,33.814 40.512,34C40.443,34.186 40.443,34.506 40.6,34.665C40.807,34.874 41.336,35.151 41.755,35.256C42.396,35.417 43.541,35.579 44.445,35.632C45.409,35.689 46.545,35.656 47.539,35.598C48.499,35.541 49.628,35.411 50.408,35.282C51.022,35.18 51.724,35.019 52.219,34.822C52.641,34.653 53.377,34.097 53.377,34.097C53.377,34.097 52.819,34.146 52.541,34.179C52.063,34.236 51.19,34.383 50.51,34.44C49.697,34.508 48.614,34.568 47.664,34.589C46.63,34.611 45.084,34.6 44.305,34.573C43.864,34.558 43.327,34.507 42.99,34.425C42.736,34.362 42.341,34.208 42.286,34.078C42.232,33.947 42.489,33.725 42.662,33.642C43.05,33.456 44.61,32.96 44.61,32.96Z" style="fill:#ff4c3b;stroke:#ff4c3b;stroke-width:0.15px;"/>
            <path d="M53.098,23.919C53.098,23.919 51.236,24.73 50.476,25.231C49.761,25.704 48.93,26.471 48.541,26.927C48.3,27.21 48.191,27.627 48.142,27.97C48.094,28.306 48.151,28.658 48.248,28.984C48.373,29.403 48.662,30.075 48.892,30.482C49.088,30.829 49.477,31.116 49.628,31.424C49.764,31.701 49.827,32.027 49.799,32.334C49.766,32.696 49.429,33.6 49.429,33.6C49.429,33.6 50.536,32.525 50.804,32.063C51.015,31.701 51.083,31.246 51.042,30.829C51,30.408 50.748,29.934 50.556,29.535C50.37,29.149 50.034,28.748 49.888,28.436C49.776,28.195 49.668,27.919 49.684,27.663C49.7,27.407 49.828,27.15 49.982,26.9C50.471,26.107 53.098,23.919 53.098,23.919Z" style="fill:#ff4c3b;stroke:#ff4c3b;stroke-width:0.15px;"/>
            <path d="M50.79,18.257C50.79,18.257 50.845,20.452 50.294,21.332C49.7,22.28 48.076,23.168 47.228,23.945C46.52,24.593 45.656,25.285 45.206,25.993C44.793,26.642 44.524,27.543 44.526,28.196C44.527,28.812 44.875,29.397 45.214,29.911C45.703,30.653 47.457,32.644 47.457,32.644C47.464,32.614 46.574,30.359 46.364,29.521C46.229,28.979 45.895,27.859 46.297,27.198C46.886,26.232 49.456,24.142 49.894,23.725C50.414,23.229 50.851,22.661 51.112,22.203C51.512,21.501 51.518,20.463 51.464,19.805C51.418,19.244 50.79,18.257 50.79,18.257Z" style="fill:#ff4c3b;stroke:#ff4c3b;stroke-width:0.15px;"/>
        </g>
    </g>
</svg>
