<?xml version="1.0" encoding="UTF-8" standalone="no"?>
<!DOCTYPE svg PUBLIC "-//W3C//DTD SVG 1.1//EN" "http://www.w3.org/Graphics/SVG/1.1/DTD/svg11.dtd">
<svg width="100%" height="100%" viewBox="0 0 64 64" version="1.1" xmlns="http://www.w3.org/2000/svg" xmlns:xlink="http://www.w3.org/1999/xlink" xml:space="preserve" xmlns:serif="http://www.serif.com/" style="fill-rule:evenodd;clip-rule:evenodd;stroke-linecap:round;stroke-linejoin:round;stroke-miterlimit:1.5;">
    <g id="json-Icon" serif:id="json Icon" transform="matrix(0.94106,0,0,0.94106,-344.822,-250.237)">
        <g id="Left-Book-Cover" serif:id="Left Book Cover" transform="matrix(1.00305,0,0,1,-1.12363,0)">
            <path d="M405.066,269.858L368.993,278.11L368.9,323.959L404.661,330.243L405.066,269.858Z" style="fill:#9777a8;stroke:#9777a8;stroke-width:2.12px;"/>
        </g>
        <g id="Right-Inside-Cover" serif:id="Right Inside Cover" transform="matrix(1,0,0,1,0,0.144635)">
            <g transform="matrix(1.11579,0,0,1,-49.9387,0)">
                <path d="M406.165,275.828L431.26,276.107L430.928,323.984L406.089,323.875L406.165,275.828Z" style="fill:#fafafa;stroke:#9777a8;stroke-width:2.01px;"/>
            </g>
            <g transform="matrix(0.924213,0,0,0.924213,369.255,270.909)">
                <g transform="matrix(24.0584,0,0,24.0584,38.8698,37.6069)">
                    <path d="M0.172,-0.259C0.195,-0.244 0.213,-0.228 0.226,-0.211C0.239,-0.193 0.248,-0.17 0.253,-0.143C0.259,-0.115 0.261,-0.08 0.261,-0.037C0.261,-0.005 0.262,0.019 0.263,0.034C0.265,0.049 0.268,0.061 0.272,0.069C0.277,0.077 0.282,0.082 0.288,0.085C0.294,0.087 0.305,0.09 0.32,0.092C0.332,0.093 0.342,0.099 0.351,0.11C0.359,0.12 0.363,0.134 0.363,0.151C0.363,0.19 0.339,0.21 0.291,0.21C0.261,0.21 0.235,0.204 0.212,0.191C0.188,0.179 0.17,0.162 0.158,0.139C0.145,0.116 0.139,0.09 0.138,0.061C0.137,0.012 0.136,-0.028 0.135,-0.058C0.134,-0.088 0.133,-0.107 0.131,-0.116C0.126,-0.138 0.119,-0.154 0.109,-0.166C0.1,-0.177 0.087,-0.187 0.072,-0.197C0.056,-0.206 0.045,-0.215 0.039,-0.222C0.032,-0.23 0.029,-0.242 0.029,-0.259C0.029,-0.283 0.038,-0.301 0.057,-0.313C0.081,-0.328 0.097,-0.34 0.107,-0.35C0.117,-0.361 0.124,-0.374 0.128,-0.39C0.132,-0.406 0.135,-0.424 0.135,-0.443C0.136,-0.462 0.137,-0.507 0.138,-0.58C0.139,-0.625 0.153,-0.661 0.181,-0.688C0.208,-0.715 0.245,-0.728 0.291,-0.728C0.339,-0.728 0.363,-0.709 0.363,-0.67C0.363,-0.652 0.359,-0.639 0.351,-0.628C0.343,-0.618 0.333,-0.612 0.32,-0.611C0.301,-0.608 0.288,-0.604 0.28,-0.599C0.273,-0.594 0.268,-0.584 0.266,-0.569C0.263,-0.554 0.262,-0.525 0.261,-0.482C0.261,-0.44 0.258,-0.406 0.254,-0.379C0.249,-0.352 0.241,-0.329 0.228,-0.31C0.215,-0.291 0.196,-0.274 0.172,-0.259Z" style="fill:#9777a8;fill-rule:nonzero;"/>
                </g>
                <g transform="matrix(24.0584,0,0,24.0584,48.1266,37.6069)">
                    <path d="M0.157,0.012C0.137,0.012 0.12,0.006 0.105,-0.007C0.09,-0.02 0.083,-0.039 0.083,-0.062C0.083,-0.082 0.09,-0.099 0.104,-0.113C0.118,-0.128 0.135,-0.135 0.156,-0.135C0.176,-0.135 0.194,-0.128 0.208,-0.114C0.223,-0.099 0.23,-0.082 0.23,-0.062C0.23,-0.039 0.223,-0.021 0.208,-0.008C0.194,0.006 0.177,0.012 0.157,0.012ZM0.083,-0.457C0.083,-0.48 0.09,-0.498 0.105,-0.511C0.119,-0.523 0.137,-0.53 0.157,-0.53C0.177,-0.53 0.194,-0.523 0.208,-0.51C0.223,-0.498 0.23,-0.48 0.23,-0.457C0.23,-0.439 0.222,-0.422 0.207,-0.407C0.191,-0.391 0.174,-0.384 0.156,-0.384C0.136,-0.384 0.119,-0.391 0.104,-0.406C0.09,-0.42 0.083,-0.438 0.083,-0.457Z" style="fill:#9777a8;fill-rule:nonzero;"/>
                </g>
                <g transform="matrix(24.0584,0,0,24.0584,55.6566,37.6069)">
                    <path d="M0.213,-0.259C0.195,-0.27 0.181,-0.281 0.17,-0.293C0.159,-0.306 0.15,-0.32 0.143,-0.337C0.135,-0.355 0.13,-0.375 0.127,-0.399C0.125,-0.422 0.123,-0.45 0.123,-0.482C0.123,-0.513 0.122,-0.537 0.121,-0.553C0.12,-0.569 0.117,-0.581 0.113,-0.589C0.109,-0.596 0.104,-0.601 0.097,-0.604C0.09,-0.607 0.079,-0.609 0.065,-0.611C0.053,-0.612 0.043,-0.618 0.034,-0.628C0.026,-0.639 0.022,-0.652 0.022,-0.67C0.022,-0.709 0.046,-0.728 0.093,-0.728C0.123,-0.728 0.15,-0.722 0.173,-0.71C0.196,-0.698 0.214,-0.68 0.227,-0.657C0.24,-0.635 0.247,-0.609 0.247,-0.58C0.249,-0.472 0.251,-0.413 0.254,-0.402C0.259,-0.38 0.267,-0.364 0.277,-0.353C0.287,-0.342 0.299,-0.332 0.313,-0.323C0.328,-0.314 0.338,-0.306 0.345,-0.297C0.352,-0.289 0.356,-0.276 0.356,-0.259C0.356,-0.234 0.347,-0.216 0.328,-0.205C0.305,-0.191 0.289,-0.179 0.279,-0.168C0.268,-0.158 0.261,-0.144 0.257,-0.129C0.253,-0.113 0.251,-0.089 0.25,-0.058C0.249,-0.026 0.248,0.014 0.247,0.061C0.246,0.106 0.232,0.142 0.204,0.169C0.176,0.196 0.139,0.21 0.093,0.21C0.07,0.21 0.052,0.205 0.04,0.195C0.028,0.185 0.022,0.17 0.022,0.151C0.022,0.14 0.024,0.13 0.028,0.121C0.032,0.112 0.037,0.105 0.043,0.101C0.05,0.096 0.057,0.093 0.065,0.092C0.08,0.09 0.09,0.087 0.098,0.084C0.105,0.082 0.11,0.076 0.114,0.068C0.118,0.06 0.12,0.048 0.121,0.032C0.122,0.016 0.123,-0.007 0.123,-0.037C0.124,-0.082 0.126,-0.117 0.131,-0.143C0.135,-0.168 0.144,-0.19 0.157,-0.208C0.169,-0.226 0.188,-0.243 0.213,-0.259Z" style="fill:#9777a8;fill-rule:nonzero;"/>
                </g>
            </g>
        </g>
        <g id="json" transform="matrix(1.18748,0,0,1.18748,-46.7751,-62.9316)">
            <g transform="matrix(0.41101,0,0,0.41101,359.269,283.165)">
                <g transform="matrix(24.776,0,0,24.776,8.37327,30.2371)">
                    <path d="M0.494,-0.64L0.494,-0.265C0.494,-0.233 0.493,-0.205 0.49,-0.182C0.487,-0.159 0.481,-0.136 0.471,-0.113C0.455,-0.073 0.428,-0.043 0.391,-0.021C0.353,0.001 0.308,0.012 0.254,0.012C0.205,0.012 0.165,0.005 0.133,-0.011C0.1,-0.026 0.074,-0.051 0.054,-0.085C0.044,-0.103 0.035,-0.124 0.029,-0.148C0.022,-0.172 0.019,-0.194 0.019,-0.216C0.019,-0.239 0.025,-0.256 0.038,-0.268C0.051,-0.28 0.067,-0.286 0.087,-0.286C0.106,-0.286 0.121,-0.281 0.13,-0.27C0.14,-0.258 0.148,-0.241 0.153,-0.218C0.158,-0.193 0.164,-0.173 0.169,-0.158C0.175,-0.143 0.184,-0.13 0.197,-0.119C0.21,-0.108 0.229,-0.103 0.253,-0.103C0.317,-0.103 0.349,-0.15 0.349,-0.244L0.349,-0.64C0.349,-0.669 0.356,-0.691 0.368,-0.706C0.381,-0.721 0.399,-0.728 0.421,-0.728C0.443,-0.728 0.461,-0.721 0.474,-0.706C0.488,-0.691 0.494,-0.669 0.494,-0.64Z" style="fill:#fff;fill-rule:nonzero;"/>
                </g>
            </g>
            <g transform="matrix(0.41101,0,0,0.41101,358.444,291.934)">
                <g transform="matrix(24.776,0,0,24.776,8.37327,30.2371)">
                    <path d="M0.622,-0.215C0.622,-0.172 0.611,-0.133 0.589,-0.098C0.566,-0.064 0.534,-0.037 0.491,-0.017C0.448,0.002 0.397,0.012 0.338,0.012C0.267,0.012 0.209,-0.001 0.163,-0.028C0.131,-0.047 0.104,-0.073 0.084,-0.105C0.063,-0.137 0.053,-0.168 0.053,-0.198C0.053,-0.216 0.059,-0.231 0.072,-0.243C0.084,-0.256 0.099,-0.262 0.118,-0.262C0.133,-0.262 0.146,-0.257 0.157,-0.248C0.168,-0.238 0.177,-0.223 0.184,-0.204C0.193,-0.181 0.203,-0.162 0.214,-0.147C0.224,-0.132 0.239,-0.119 0.258,-0.109C0.278,-0.099 0.303,-0.094 0.334,-0.094C0.377,-0.094 0.412,-0.104 0.439,-0.124C0.466,-0.144 0.479,-0.169 0.479,-0.199C0.479,-0.223 0.472,-0.242 0.457,-0.257C0.443,-0.272 0.424,-0.283 0.401,-0.291C0.378,-0.299 0.347,-0.307 0.309,-0.316C0.258,-0.328 0.215,-0.342 0.18,-0.358C0.145,-0.374 0.118,-0.396 0.097,-0.424C0.077,-0.452 0.067,-0.486 0.067,-0.528C0.067,-0.567 0.078,-0.602 0.099,-0.633C0.121,-0.663 0.152,-0.687 0.192,-0.703C0.233,-0.72 0.281,-0.728 0.336,-0.728C0.38,-0.728 0.418,-0.723 0.45,-0.712C0.482,-0.701 0.509,-0.686 0.53,-0.668C0.551,-0.65 0.566,-0.631 0.576,-0.611C0.586,-0.591 0.591,-0.572 0.591,-0.553C0.591,-0.536 0.585,-0.52 0.573,-0.507C0.56,-0.493 0.545,-0.486 0.527,-0.486C0.51,-0.486 0.498,-0.49 0.489,-0.498C0.48,-0.507 0.471,-0.52 0.461,-0.539C0.448,-0.566 0.432,-0.587 0.414,-0.602C0.396,-0.617 0.367,-0.625 0.326,-0.625C0.289,-0.625 0.259,-0.617 0.236,-0.6C0.213,-0.584 0.201,-0.564 0.201,-0.541C0.201,-0.527 0.205,-0.514 0.213,-0.504C0.221,-0.493 0.231,-0.485 0.245,-0.477C0.259,-0.47 0.273,-0.464 0.287,-0.459C0.301,-0.455 0.324,-0.449 0.356,-0.441C0.396,-0.431 0.433,-0.421 0.466,-0.41C0.498,-0.398 0.526,-0.384 0.549,-0.368C0.572,-0.352 0.59,-0.331 0.603,-0.306C0.616,-0.281 0.622,-0.251 0.622,-0.215Z" style="fill:#fff;fill-rule:nonzero;"/>
                </g>
            </g>
            <g transform="matrix(0.41101,0,0,0.41101,357.855,300.631)">
                <g transform="matrix(24.776,0,0,24.776,8.37327,30.2371)">
                    <path d="M0.393,-0.728C0.467,-0.728 0.531,-0.713 0.584,-0.683C0.637,-0.653 0.678,-0.61 0.705,-0.554C0.732,-0.499 0.746,-0.434 0.746,-0.359C0.746,-0.304 0.739,-0.253 0.724,-0.208C0.709,-0.163 0.686,-0.124 0.656,-0.09C0.626,-0.057 0.59,-0.032 0.546,-0.014C0.502,0.003 0.452,0.012 0.396,0.012C0.34,0.012 0.29,0.003 0.246,-0.015C0.201,-0.033 0.164,-0.058 0.135,-0.091C0.105,-0.124 0.083,-0.164 0.068,-0.21C0.052,-0.256 0.045,-0.306 0.045,-0.36C0.045,-0.415 0.053,-0.465 0.069,-0.511C0.084,-0.557 0.107,-0.596 0.137,-0.628C0.167,-0.661 0.204,-0.685 0.247,-0.702C0.29,-0.719 0.338,-0.728 0.393,-0.728ZM0.599,-0.36C0.599,-0.412 0.591,-0.458 0.574,-0.496C0.557,-0.535 0.533,-0.564 0.501,-0.583C0.47,-0.603 0.434,-0.613 0.393,-0.613C0.364,-0.613 0.337,-0.607 0.313,-0.596C0.288,-0.586 0.267,-0.57 0.249,-0.549C0.232,-0.528 0.218,-0.501 0.207,-0.469C0.197,-0.437 0.192,-0.4 0.192,-0.36C0.192,-0.319 0.197,-0.282 0.207,-0.25C0.218,-0.217 0.232,-0.189 0.251,-0.168C0.269,-0.146 0.291,-0.13 0.315,-0.119C0.339,-0.108 0.366,-0.103 0.395,-0.103C0.432,-0.103 0.466,-0.112 0.497,-0.131C0.528,-0.149 0.553,-0.178 0.572,-0.217C0.59,-0.256 0.599,-0.303 0.599,-0.36Z" style="fill:#fff;fill-rule:nonzero;"/>
                </g>
            </g>
            <g transform="matrix(0.41101,0,0,0.41101,358.016,309.391)">
                <g transform="matrix(24.776,0,0,24.776,8.37327,30.2371)">
                    <path d="M0.267,-0.641L0.546,-0.219L0.546,-0.645C0.546,-0.673 0.552,-0.693 0.564,-0.707C0.576,-0.721 0.592,-0.728 0.612,-0.728C0.633,-0.728 0.649,-0.721 0.661,-0.707C0.673,-0.693 0.679,-0.673 0.679,-0.645L0.679,-0.082C0.679,-0.019 0.653,0.012 0.601,0.012C0.588,0.012 0.576,0.01 0.566,0.007C0.556,0.003 0.546,-0.003 0.537,-0.011C0.528,-0.019 0.519,-0.029 0.511,-0.04C0.503,-0.051 0.496,-0.062 0.488,-0.073L0.216,-0.49L0.216,-0.071C0.216,-0.043 0.209,-0.023 0.197,-0.009C0.184,0.005 0.168,0.012 0.148,0.012C0.127,0.012 0.111,0.005 0.099,-0.009C0.086,-0.023 0.08,-0.044 0.08,-0.071L0.08,-0.623C0.08,-0.646 0.083,-0.665 0.088,-0.678C0.094,-0.693 0.104,-0.705 0.119,-0.714C0.133,-0.723 0.148,-0.728 0.165,-0.728C0.178,-0.728 0.189,-0.726 0.198,-0.722C0.208,-0.717 0.216,-0.712 0.223,-0.705C0.23,-0.697 0.237,-0.688 0.244,-0.677C0.252,-0.665 0.259,-0.653 0.267,-0.641Z" style="fill:#fff;fill-rule:nonzero;"/>
                </g>
            </g>
        </g>
    </g>
</svg>
