<?xml version="1.0" encoding="UTF-8" standalone="no"?>
<!DOCTYPE svg PUBLIC "-//W3C//DTD SVG 1.1//EN" "http://www.w3.org/Graphics/SVG/1.1/DTD/svg11.dtd">
<svg width="100%" height="100%" viewBox="0 0 64 64" version="1.1" xmlns="http://www.w3.org/2000/svg" xmlns:xlink="http://www.w3.org/1999/xlink" xml:space="preserve" xmlns:serif="http://www.serif.com/" style="fill-rule:evenodd;clip-rule:evenodd;stroke-linecap:round;stroke-linejoin:round;stroke-miterlimit:1.5;">
    <g id="mp3-Icon" serif:id="mp3 Icon" transform="matrix(0.94106,0,0,0.94106,-344.822,-250.237)">
        <g id="Left-Book-Cover" serif:id="Left Book Cover" transform="matrix(1.00305,0,0,1,-1.12363,0)">
            <path d="M405.066,269.858L368.993,278.11L368.9,323.959L404.661,330.243L405.066,269.858Z" style="fill:#6b94f3;stroke:#6b94f3;stroke-width:2.12px;"/>
        </g>
        <g transform="matrix(1.11579,0,0,1,-49.9352,0)">
            <g id="Right-Inside-Cover" serif:id="Right Inside Cover">
                <path d="M406.165,275.828L431.26,276.107L430.928,323.984L406.089,323.875L406.165,275.828Z" style="fill:#fafafa;stroke:#6b94f3;stroke-width:2.01px;"/>
            </g>
        </g>
        <g id="MP3">
            <g transform="matrix(0.601372,0,0,0.601372,375.645,275.578)">
                <g transform="matrix(24.776,0,0,24.776,6.96389,30.2371)">
                    <path d="M0.32,-0.108L0.205,-0.564L0.205,-0.07C0.205,-0.042 0.199,-0.022 0.187,-0.008C0.175,0.005 0.158,0.012 0.138,0.012C0.119,0.012 0.103,0.005 0.09,-0.008C0.078,-0.022 0.072,-0.042 0.072,-0.07L0.072,-0.636C0.072,-0.667 0.08,-0.689 0.096,-0.699C0.112,-0.71 0.134,-0.716 0.162,-0.716L0.207,-0.716C0.234,-0.716 0.254,-0.713 0.266,-0.708C0.278,-0.704 0.287,-0.695 0.293,-0.682C0.299,-0.669 0.306,-0.649 0.313,-0.62L0.417,-0.228L0.521,-0.62C0.528,-0.649 0.535,-0.669 0.541,-0.682C0.547,-0.695 0.556,-0.704 0.568,-0.708C0.58,-0.713 0.6,-0.716 0.627,-0.716L0.672,-0.716C0.7,-0.716 0.722,-0.71 0.738,-0.699C0.754,-0.689 0.762,-0.667 0.762,-0.636L0.762,-0.07C0.762,-0.042 0.756,-0.022 0.744,-0.008C0.732,0.005 0.715,0.012 0.695,0.012C0.676,0.012 0.66,0.005 0.647,-0.008C0.635,-0.022 0.629,-0.042 0.629,-0.07L0.629,-0.564L0.514,-0.108C0.507,-0.078 0.501,-0.057 0.496,-0.043C0.491,-0.029 0.482,-0.016 0.47,-0.005C0.457,0.007 0.439,0.012 0.417,0.012C0.4,0.012 0.386,0.009 0.374,0.001C0.362,-0.006 0.353,-0.015 0.347,-0.027C0.34,-0.038 0.335,-0.051 0.331,-0.065C0.328,-0.079 0.324,-0.093 0.32,-0.108Z" style="fill:#fafafa;fill-rule:nonzero;"/>
                </g>
            </g>
            <g transform="matrix(0.601372,0,0,0.601372,376.092,287.3)">
                <g transform="matrix(24.776,0,0,24.776,7.85307,30.2371)">
                    <path d="M0.356,-0.279L0.223,-0.279L0.223,-0.076C0.223,-0.047 0.216,-0.025 0.203,-0.01C0.189,0.005 0.172,0.012 0.151,0.012C0.129,0.012 0.111,0.005 0.098,-0.01C0.085,-0.025 0.078,-0.047 0.078,-0.075L0.078,-0.627C0.078,-0.659 0.085,-0.682 0.1,-0.695C0.115,-0.709 0.138,-0.716 0.17,-0.716L0.356,-0.716C0.411,-0.716 0.453,-0.712 0.483,-0.703C0.512,-0.695 0.538,-0.681 0.559,-0.663C0.58,-0.644 0.596,-0.621 0.607,-0.593C0.618,-0.566 0.624,-0.535 0.624,-0.501C0.624,-0.428 0.602,-0.373 0.557,-0.335C0.512,-0.298 0.445,-0.279 0.356,-0.279ZM0.321,-0.607L0.223,-0.607L0.223,-0.388L0.321,-0.388C0.355,-0.388 0.384,-0.392 0.406,-0.399C0.429,-0.406 0.447,-0.418 0.459,-0.434C0.471,-0.45 0.477,-0.472 0.477,-0.498C0.477,-0.53 0.468,-0.555 0.449,-0.575C0.428,-0.596 0.386,-0.607 0.321,-0.607Z" style="fill:#fafafa;fill-rule:nonzero;"/>
                </g>
            </g>
            <g transform="matrix(0.601372,0,0,0.601372,376.485,298.896)">
                <g transform="matrix(24.776,0,0,24.776,8.49424,30.2371)">
                    <path d="M0.274,-0.432C0.304,-0.432 0.33,-0.441 0.351,-0.458C0.373,-0.476 0.384,-0.501 0.384,-0.534C0.384,-0.559 0.375,-0.581 0.358,-0.599C0.341,-0.617 0.317,-0.626 0.288,-0.626C0.268,-0.626 0.252,-0.623 0.239,-0.618C0.226,-0.612 0.216,-0.605 0.208,-0.596C0.201,-0.587 0.194,-0.575 0.187,-0.561C0.181,-0.546 0.174,-0.533 0.169,-0.52C0.166,-0.513 0.16,-0.508 0.151,-0.504C0.143,-0.5 0.133,-0.498 0.122,-0.498C0.109,-0.498 0.097,-0.503 0.086,-0.514C0.075,-0.524 0.07,-0.539 0.07,-0.556C0.07,-0.573 0.075,-0.591 0.085,-0.61C0.095,-0.628 0.11,-0.646 0.13,-0.663C0.15,-0.68 0.174,-0.694 0.204,-0.704C0.233,-0.714 0.266,-0.719 0.302,-0.719C0.333,-0.719 0.362,-0.715 0.388,-0.706C0.414,-0.698 0.437,-0.685 0.456,-0.669C0.475,-0.653 0.49,-0.634 0.5,-0.612C0.509,-0.591 0.514,-0.568 0.514,-0.543C0.514,-0.51 0.507,-0.483 0.493,-0.459C0.479,-0.436 0.458,-0.413 0.432,-0.391C0.458,-0.377 0.479,-0.362 0.496,-0.344C0.514,-0.327 0.527,-0.307 0.536,-0.286C0.544,-0.265 0.549,-0.242 0.549,-0.217C0.549,-0.187 0.543,-0.159 0.531,-0.131C0.519,-0.103 0.502,-0.079 0.479,-0.057C0.455,-0.035 0.428,-0.018 0.396,-0.006C0.365,0.006 0.329,0.012 0.291,0.012C0.252,0.012 0.217,0.005 0.186,-0.009C0.155,-0.023 0.13,-0.04 0.11,-0.061C0.09,-0.082 0.074,-0.104 0.064,-0.126C0.054,-0.149 0.049,-0.167 0.049,-0.182C0.049,-0.201 0.055,-0.216 0.067,-0.228C0.079,-0.239 0.095,-0.245 0.113,-0.245C0.122,-0.245 0.131,-0.242 0.139,-0.237C0.148,-0.232 0.153,-0.225 0.156,-0.218C0.173,-0.173 0.191,-0.139 0.21,-0.117C0.23,-0.095 0.257,-0.084 0.292,-0.084C0.312,-0.084 0.332,-0.089 0.35,-0.099C0.369,-0.109 0.385,-0.124 0.397,-0.143C0.409,-0.163 0.415,-0.185 0.415,-0.211C0.415,-0.249 0.405,-0.279 0.384,-0.301C0.363,-0.322 0.334,-0.333 0.297,-0.333C0.29,-0.333 0.28,-0.332 0.267,-0.331C0.253,-0.33 0.244,-0.329 0.24,-0.329C0.222,-0.329 0.208,-0.334 0.199,-0.343C0.189,-0.351 0.184,-0.364 0.184,-0.38C0.184,-0.396 0.19,-0.408 0.202,-0.418C0.213,-0.427 0.231,-0.432 0.254,-0.432L0.274,-0.432Z" style="fill:#fafafa;fill-rule:nonzero;"/>
                </g>
            </g>
        </g>
        <g id="Music-Icon" serif:id="Music Icon" transform="matrix(1.06263,0,0,1.06263,368.103,265.843)">
            <g transform="matrix(1,0,0,1,-2.02075,-2.90865)">
                <ellipse cx="42.022" cy="44.955" rx="2.64" ry="1.59" style="fill:#6b94f3;stroke:#6b94f3;stroke-width:2px;"/>
            </g>
            <g transform="matrix(1,0,0,1,9.49924,-6.49519)">
                <ellipse cx="42.022" cy="44.955" rx="2.64" ry="1.59" style="fill:#6b94f3;stroke:#6b94f3;stroke-width:2px;"/>
            </g>
            <g transform="matrix(0.889953,-0.216492,0,1,6.20568,8.58635)">
                <rect x="39.797" y="22.635" width="14.293" height="2.46" style="fill:#6b94f3;stroke:#6b94f3;stroke-width:2px;"/>
            </g>
            <g transform="matrix(0.767138,0,0,1.49543,11.8082,-15.8278)">
                <rect x="54.353" y="25.041" width="0.634" height="11.286" style="fill:#6b94f3;stroke:#6b94f3;stroke-width:2px;"/>
            </g>
            <g transform="matrix(0.767138,0,0,1.49543,0.280968,-12.5924)">
                <rect x="54.353" y="25.041" width="0.634" height="11.286" style="fill:#6b94f3;stroke:#6b94f3;stroke-width:2px;"/>
            </g>
        </g>
    </g>
</svg>
