<?xml version="1.0" encoding="UTF-8" standalone="no"?>
<!DOCTYPE svg PUBLIC "-//W3C//DTD SVG 1.1//EN" "http://www.w3.org/Graphics/SVG/1.1/DTD/svg11.dtd">
<svg width="100%" height="100%" viewBox="0 0 64 64" version="1.1" xmlns="http://www.w3.org/2000/svg" xmlns:xlink="http://www.w3.org/1999/xlink" xml:space="preserve" xmlns:serif="http://www.serif.com/" style="fill-rule:evenodd;clip-rule:evenodd;stroke-linecap:round;stroke-linejoin:round;stroke-miterlimit:1.5;">
    <g id="MP4-Icon" serif:id="MP4 Icon" transform="matrix(0.94106,0,0,0.94106,-344.822,-250.237)">
        <g id="Left-Book-Cover" serif:id="Left Book Cover" transform="matrix(1.00305,0,0,1,-1.12363,0)">
            <path d="M405.066,269.858L368.993,278.11L368.9,323.959L404.661,330.243L405.066,269.858Z" style="fill:#8625e7;stroke:#8625e7;stroke-width:2.12px;"/>
        </g>
        <g transform="matrix(1.11579,0,0,1,-49.9352,0)">
            <g id="Right-Inside-Cover" serif:id="Right Inside Cover">
                <path d="M406.165,275.828L431.26,276.107L430.928,323.984L406.089,323.875L406.165,275.828Z" style="fill:#fafafa;stroke:#8625e7;stroke-width:2.01px;"/>
            </g>
        </g>
        <g id="MP4" transform="matrix(1,0,0,1,0.411926,0.314057)">
            <g transform="matrix(0.601372,0,0,0.601372,374.591,275.435)">
                <g transform="matrix(24.776,0,0,24.776,8.37327,30.2371)">
                    <path d="M0.32,-0.108L0.205,-0.564L0.205,-0.07C0.205,-0.042 0.199,-0.022 0.187,-0.008C0.175,0.005 0.158,0.012 0.138,0.012C0.119,0.012 0.103,0.005 0.09,-0.008C0.078,-0.022 0.072,-0.042 0.072,-0.07L0.072,-0.636C0.072,-0.667 0.08,-0.689 0.096,-0.699C0.112,-0.71 0.134,-0.716 0.162,-0.716L0.207,-0.716C0.234,-0.716 0.254,-0.713 0.266,-0.708C0.278,-0.704 0.287,-0.695 0.293,-0.682C0.299,-0.669 0.306,-0.649 0.313,-0.62L0.417,-0.228L0.521,-0.62C0.528,-0.649 0.535,-0.669 0.541,-0.682C0.547,-0.695 0.556,-0.704 0.568,-0.708C0.58,-0.713 0.6,-0.716 0.627,-0.716L0.672,-0.716C0.7,-0.716 0.722,-0.71 0.738,-0.699C0.754,-0.689 0.762,-0.667 0.762,-0.636L0.762,-0.07C0.762,-0.042 0.756,-0.022 0.744,-0.008C0.732,0.005 0.715,0.012 0.695,0.012C0.676,0.012 0.66,0.005 0.647,-0.008C0.635,-0.022 0.629,-0.042 0.629,-0.07L0.629,-0.564L0.514,-0.108C0.507,-0.078 0.501,-0.057 0.496,-0.043C0.491,-0.029 0.482,-0.016 0.47,-0.005C0.457,0.007 0.439,0.012 0.417,0.012C0.4,0.012 0.386,0.009 0.374,0.001C0.362,-0.006 0.353,-0.015 0.347,-0.027C0.34,-0.038 0.335,-0.051 0.331,-0.065C0.328,-0.079 0.324,-0.093 0.32,-0.108Z" style="fill:#fafafa;fill-rule:nonzero;"/>
                </g>
            </g>
            <g transform="matrix(0.601372,0,0,0.601372,375.573,287.158)">
                <g transform="matrix(24.776,0,0,24.776,8.37327,30.2371)">
                    <path d="M0.356,-0.279L0.223,-0.279L0.223,-0.076C0.223,-0.047 0.216,-0.025 0.203,-0.01C0.189,0.005 0.172,0.012 0.151,0.012C0.129,0.012 0.111,0.005 0.098,-0.01C0.085,-0.025 0.078,-0.047 0.078,-0.075L0.078,-0.627C0.078,-0.659 0.085,-0.682 0.1,-0.695C0.115,-0.709 0.138,-0.716 0.17,-0.716L0.356,-0.716C0.411,-0.716 0.453,-0.712 0.483,-0.703C0.512,-0.695 0.538,-0.681 0.559,-0.663C0.58,-0.644 0.596,-0.621 0.607,-0.593C0.618,-0.566 0.624,-0.535 0.624,-0.501C0.624,-0.428 0.602,-0.373 0.557,-0.335C0.512,-0.298 0.445,-0.279 0.356,-0.279ZM0.321,-0.607L0.223,-0.607L0.223,-0.388L0.321,-0.388C0.355,-0.388 0.384,-0.392 0.406,-0.399C0.429,-0.406 0.447,-0.418 0.459,-0.434C0.471,-0.45 0.477,-0.472 0.477,-0.498C0.477,-0.53 0.468,-0.555 0.449,-0.575C0.428,-0.596 0.386,-0.607 0.321,-0.607Z" style="fill:#fafafa;fill-rule:nonzero;"/>
                </g>
            </g>
            <g transform="matrix(0.601372,0,0,0.601372,376.421,298.753)">
                <g transform="matrix(24.776,0,0,24.776,8.37327,30.2371)">
                    <path d="M0.35,-0.062L0.35,-0.153L0.105,-0.153C0.074,-0.153 0.051,-0.16 0.035,-0.174C0.02,-0.188 0.012,-0.207 0.012,-0.231C0.012,-0.237 0.013,-0.243 0.016,-0.25C0.018,-0.256 0.021,-0.263 0.026,-0.27C0.03,-0.277 0.035,-0.284 0.04,-0.29C0.045,-0.297 0.051,-0.305 0.058,-0.314L0.317,-0.66C0.334,-0.683 0.348,-0.699 0.359,-0.71C0.37,-0.72 0.383,-0.725 0.398,-0.725C0.447,-0.725 0.472,-0.697 0.472,-0.64L0.472,-0.262L0.493,-0.262C0.518,-0.262 0.538,-0.259 0.553,-0.252C0.569,-0.245 0.576,-0.23 0.576,-0.207C0.576,-0.188 0.57,-0.174 0.558,-0.166C0.545,-0.157 0.527,-0.153 0.502,-0.153L0.472,-0.153L0.472,-0.062C0.472,-0.037 0.467,-0.018 0.456,-0.006C0.444,0.006 0.43,0.012 0.411,0.012C0.393,0.012 0.378,0.006 0.367,-0.007C0.356,-0.019 0.35,-0.038 0.35,-0.062ZM0.14,-0.262L0.35,-0.262L0.35,-0.546L0.14,-0.262Z" style="fill:#fafafa;fill-rule:nonzero;"/>
                </g>
            </g>
        </g>
    </g>
    <g transform="matrix(1.05684,0,0,1.05684,-3.73267,-1.98031)">
        <circle cx="48.584" cy="31.265" r="7.954" style="fill:#fafafa;"/>
    </g>
    <g transform="matrix(0.000448123,1.20729,-1.20729,0.000448123,86.0496,-27.5311)">
        <path d="M48.5,26.55L52.698,34.946L44.301,34.946L48.5,26.55Z" style="fill:#8625e7;stroke:#8625e7;stroke-width:1.5px;"/>
    </g>
</svg>
