<?xml version="1.0" encoding="UTF-8" standalone="no"?>
<!DOCTYPE svg PUBLIC "-//W3C//DTD SVG 1.1//EN" "http://www.w3.org/Graphics/SVG/1.1/DTD/svg11.dtd">
<svg width="100%" height="100%" viewBox="0 0 64 64" version="1.1" xmlns="http://www.w3.org/2000/svg" xmlns:xlink="http://www.w3.org/1999/xlink" xml:space="preserve" xmlns:serif="http://www.serif.com/" style="fill-rule:evenodd;clip-rule:evenodd;stroke-linecap:round;stroke-linejoin:round;stroke-miterlimit:1.5;">
    <g id="Inside-Cover-Right" serif:id="Inside Cover Right">
        <g transform="matrix(1.05002,0,0,0.94106,-391.814,-250.237)">
            <path d="M406.165,275.828L431.26,276.107L430.928,323.984L406.089,323.875L406.165,275.828Z" style="fill:#fafafa;stroke:#dc4955;stroke-width:2.01px;"/>
        </g>
        <g id="Left-Book-Cover" serif:id="Left Book Cover" transform="matrix(0.943926,0,0,0.94106,-345.879,-250.237)">
            <path d="M405.066,269.858L368.993,278.11L368.9,323.959L404.661,330.243L405.066,269.858Z" style="fill:#dc4955;stroke:#dc4955;stroke-width:2.12px;"/>
        </g>
        <path d="M46.681,15.54C46.681,14.832 47.459,14.258 48.418,14.258C49.377,14.258 50.155,14.832 50.155,15.54C50.635,14.927 51.698,14.717 52.529,15.071C53.359,15.424 53.644,16.209 53.164,16.822C53.995,16.468 55.058,16.678 55.538,17.291C56.017,17.904 55.732,18.688 54.902,19.042C55.86,19.042 56.639,19.617 56.639,20.324C56.639,21.032 55.86,21.606 54.902,21.606C55.732,21.96 56.017,22.745 55.538,23.357C55.058,23.97 53.995,24.18 53.164,23.827C53.644,24.439 53.359,25.224 52.529,25.578C51.698,25.932 50.635,25.721 50.155,25.109C50.155,25.816 49.377,26.391 48.418,26.391C47.459,26.391 46.681,25.816 46.681,25.109C46.202,25.721 45.138,25.932 44.308,25.578C43.478,25.224 43.193,24.439 43.672,23.827C42.842,24.18 41.778,23.97 41.299,23.357C40.82,22.745 41.105,21.96 41.935,21.606C40.976,21.606 40.198,21.032 40.198,20.324C40.198,19.617 40.976,19.042 41.935,19.042C41.105,18.688 40.82,17.904 41.299,17.291C41.778,16.678 42.842,16.468 43.672,16.822C43.193,16.209 43.478,15.424 44.308,15.071C45.138,14.717 46.202,14.927 46.681,15.54Z" style="fill:#dc4955;stroke:#dc4955;stroke-width:3.5px;"/>
        <g transform="matrix(1,0,0,1,0,7.99529)">
            <path d="M35.694,40.022L54.614,40.022" style="fill:none;stroke:#dc4955;stroke-width:3.5px;"/>
        </g>
        <path d="M35.694,40.022L54.614,40.022" style="fill:none;stroke:#dc4955;stroke-width:3.5px;"/>
        <g transform="matrix(1,0,0,1,0,-8.19023)">
            <path d="M35.694,40.022L54.614,40.022" style="fill:none;stroke:#dc4955;stroke-width:3.5px;"/>
        </g>
    </g>
    <g id="PDF">
        <g transform="matrix(1.14859,0,0,1.14859,8.22604,9.54451)">
            <g transform="matrix(12,0,0,12,4.5434,13.6629)">
                <path d="M0.356,-0.279L0.223,-0.279L0.223,-0.076C0.223,-0.047 0.216,-0.025 0.203,-0.01C0.189,0.005 0.172,0.012 0.151,0.012C0.129,0.012 0.111,0.005 0.098,-0.01C0.085,-0.025 0.078,-0.047 0.078,-0.075L0.078,-0.627C0.078,-0.659 0.085,-0.682 0.1,-0.695C0.115,-0.709 0.138,-0.716 0.17,-0.716L0.356,-0.716C0.411,-0.716 0.453,-0.712 0.483,-0.703C0.512,-0.695 0.538,-0.681 0.559,-0.663C0.58,-0.644 0.596,-0.621 0.607,-0.593C0.618,-0.566 0.624,-0.535 0.624,-0.501C0.624,-0.428 0.602,-0.373 0.557,-0.335C0.512,-0.298 0.445,-0.279 0.356,-0.279ZM0.321,-0.607L0.223,-0.607L0.223,-0.388L0.321,-0.388C0.355,-0.388 0.384,-0.392 0.406,-0.399C0.429,-0.406 0.447,-0.418 0.459,-0.434C0.471,-0.45 0.477,-0.472 0.477,-0.498C0.477,-0.53 0.468,-0.555 0.449,-0.575C0.428,-0.596 0.386,-0.607 0.321,-0.607Z" style="fill:#fafafa;fill-rule:nonzero;"/>
            </g>
        </g>
        <g transform="matrix(1.14859,0,0,1.14859,7.7583,21.6905)">
            <g transform="matrix(12,0,0,12,4.5434,13.6629)">
                <path d="M0.168,-0.716L0.357,-0.716C0.406,-0.716 0.448,-0.711 0.483,-0.702C0.519,-0.693 0.55,-0.676 0.579,-0.651C0.654,-0.587 0.691,-0.49 0.691,-0.36C0.691,-0.317 0.687,-0.278 0.68,-0.242C0.672,-0.207 0.661,-0.175 0.645,-0.146C0.629,-0.118 0.609,-0.092 0.585,-0.07C0.566,-0.053 0.545,-0.039 0.522,-0.028C0.499,-0.018 0.475,-0.011 0.448,-0.006C0.422,-0.002 0.393,-0 0.36,-0L0.171,-0C0.145,-0 0.125,-0.004 0.111,-0.012C0.098,-0.02 0.089,-0.031 0.085,-0.046C0.081,-0.06 0.079,-0.079 0.079,-0.102L0.079,-0.627C0.079,-0.658 0.086,-0.681 0.1,-0.695C0.114,-0.709 0.137,-0.716 0.168,-0.716ZM0.224,-0.601L0.224,-0.115L0.334,-0.115C0.358,-0.115 0.377,-0.116 0.391,-0.117C0.404,-0.118 0.418,-0.122 0.433,-0.127C0.448,-0.132 0.46,-0.139 0.471,-0.149C0.52,-0.19 0.544,-0.261 0.544,-0.361C0.544,-0.431 0.533,-0.484 0.512,-0.52C0.491,-0.555 0.464,-0.577 0.433,-0.587C0.402,-0.596 0.364,-0.601 0.32,-0.601L0.224,-0.601Z" style="fill:#fafafa;fill-rule:nonzero;"/>
            </g>
        </g>
        <g transform="matrix(1.14859,0,0,1.14859,8.58946,33.6766)">
            <g transform="matrix(12,0,0,12,4.5434,13.6629)">
                <path d="M0.506,-0.604L0.22,-0.604L0.22,-0.421L0.459,-0.421C0.481,-0.421 0.498,-0.416 0.509,-0.406C0.519,-0.396 0.525,-0.383 0.525,-0.366C0.525,-0.35 0.519,-0.336 0.508,-0.327C0.497,-0.317 0.481,-0.312 0.459,-0.312L0.22,-0.312L0.22,-0.076C0.22,-0.046 0.213,-0.024 0.2,-0.01C0.186,0.005 0.169,0.012 0.148,0.012C0.126,0.012 0.109,0.005 0.095,-0.01C0.082,-0.024 0.075,-0.047 0.075,-0.076L0.075,-0.627C0.075,-0.648 0.078,-0.665 0.084,-0.678C0.091,-0.691 0.1,-0.701 0.114,-0.707C0.127,-0.713 0.144,-0.716 0.164,-0.716L0.506,-0.716C0.529,-0.716 0.546,-0.711 0.557,-0.7C0.569,-0.69 0.574,-0.677 0.574,-0.66C0.574,-0.643 0.569,-0.63 0.557,-0.619C0.546,-0.609 0.529,-0.604 0.506,-0.604Z" style="fill:#fafafa;fill-rule:nonzero;"/>
            </g>
        </g>
    </g>
</svg>
