<?xml version="1.0" encoding="UTF-8" standalone="no"?>
<!DOCTYPE svg PUBLIC "-//W3C//DTD SVG 1.1//EN" "http://www.w3.org/Graphics/SVG/1.1/DTD/svg11.dtd">
<svg width="100%" height="100%" viewBox="0 0 64 64" version="1.1" xmlns="http://www.w3.org/2000/svg" xmlns:xlink="http://www.w3.org/1999/xlink" xml:space="preserve" xmlns:serif="http://www.serif.com/" style="fill-rule:evenodd;clip-rule:evenodd;stroke-linecap:round;stroke-linejoin:round;stroke-miterlimit:1.5;">
    <g id="Left-Book-Cover" serif:id="Left Book Cover" transform="matrix(0.943926,0,0,0.94106,-345.879,-250.237)">
        <path d="M405.066,269.858L368.993,278.11L368.9,323.959L404.661,330.243L405.066,269.858Z" style="fill:#ff5722;stroke:#ff5722;stroke-width:2.12px;"/>
    </g>
    <g id="Inside-Cover-Right" serif:id="Inside Cover Right">
        <g transform="matrix(0.981049,0,0,1.00209,0.642515,-0.116673)">
            <path d="M34.084,55.809L33.904,7.881L62.748,8.183L62.748,55.809L34.084,55.809Z" style="fill:#fafafa;stroke:#ff5722;stroke-width:2.52px;"/>
        </g>
        <g id="Layer1">
            <path d="M35.494,39.894L54.804,39.894" style="fill:none;stroke:#ff5722;stroke-width:3.5px;"/>
        </g>
        <g id="Layer2">
            <path d="M35.278,48.019L54.756,48.019" style="fill:none;stroke:#ff5722;stroke-width:3.5px;"/>
            <g transform="matrix(1379.34,0,0,1379.34,-53540.6,-21448.3)">
                <path d="M38.848,15.562C38.844,15.562 38.841,15.565 38.841,15.569C38.841,15.573 38.844,15.576 38.848,15.576C38.852,15.576 38.856,15.573 38.856,15.569L38.848,15.569L38.848,15.562Z" style="fill:#ff5722;"/>
            </g>
            <g transform="matrix(-0.433743,1379.34,-1379.34,-0.433743,21537.9,-53553.3)">
                <path d="M38.848,15.562C38.844,15.562 38.841,15.565 38.841,15.569L38.848,15.569L38.848,15.562Z" style="fill:#ff5722;"/>
            </g>
        </g>
    </g>
    <g id="Power" transform="matrix(0.904658,0,0,0.904658,2.24772,2.85878)">
        <g transform="matrix(0.925758,0,0,0.925758,3.78771,4.78433)">
            <g transform="matrix(12,0,0,12,4.5434,13.6629)">
                <path d="M0.356,-0.279L0.223,-0.279L0.223,-0.076C0.223,-0.047 0.216,-0.025 0.203,-0.01C0.189,0.005 0.172,0.012 0.151,0.012C0.129,0.012 0.111,0.005 0.098,-0.01C0.085,-0.025 0.078,-0.047 0.078,-0.075L0.078,-0.627C0.078,-0.659 0.085,-0.682 0.1,-0.695C0.115,-0.709 0.138,-0.716 0.17,-0.716L0.356,-0.716C0.411,-0.716 0.453,-0.712 0.483,-0.703C0.512,-0.695 0.538,-0.681 0.559,-0.663C0.58,-0.644 0.596,-0.621 0.607,-0.593C0.618,-0.566 0.624,-0.535 0.624,-0.501C0.624,-0.428 0.602,-0.373 0.557,-0.335C0.512,-0.298 0.445,-0.279 0.356,-0.279ZM0.321,-0.607L0.223,-0.607L0.223,-0.388L0.321,-0.388C0.355,-0.388 0.384,-0.392 0.406,-0.399C0.429,-0.406 0.447,-0.418 0.459,-0.434C0.471,-0.45 0.477,-0.472 0.477,-0.498C0.477,-0.53 0.468,-0.555 0.449,-0.575C0.428,-0.596 0.386,-0.607 0.321,-0.607Z" style="fill:#fafafa;fill-rule:nonzero;"/>
            </g>
        </g>
        <g transform="matrix(0.925758,0,0,0.925758,3.29409,14.5739)">
            <g transform="matrix(12,0,0,12,4.5434,13.6629)">
                <path d="M0.393,-0.728C0.467,-0.728 0.531,-0.713 0.584,-0.683C0.637,-0.653 0.678,-0.61 0.705,-0.554C0.732,-0.499 0.746,-0.434 0.746,-0.359C0.746,-0.304 0.739,-0.253 0.724,-0.208C0.709,-0.163 0.686,-0.124 0.656,-0.09C0.626,-0.057 0.59,-0.032 0.546,-0.014C0.502,0.003 0.452,0.012 0.396,0.012C0.34,0.012 0.29,0.003 0.246,-0.015C0.201,-0.033 0.164,-0.058 0.135,-0.091C0.105,-0.124 0.083,-0.164 0.068,-0.21C0.052,-0.256 0.045,-0.306 0.045,-0.36C0.045,-0.415 0.053,-0.465 0.069,-0.511C0.084,-0.557 0.107,-0.596 0.137,-0.628C0.167,-0.661 0.204,-0.685 0.247,-0.702C0.29,-0.719 0.338,-0.728 0.393,-0.728ZM0.599,-0.36C0.599,-0.412 0.591,-0.458 0.574,-0.496C0.557,-0.535 0.533,-0.564 0.501,-0.583C0.47,-0.603 0.434,-0.613 0.393,-0.613C0.364,-0.613 0.337,-0.607 0.313,-0.596C0.288,-0.586 0.267,-0.57 0.249,-0.549C0.232,-0.528 0.218,-0.501 0.207,-0.469C0.197,-0.437 0.192,-0.4 0.192,-0.36C0.192,-0.319 0.197,-0.282 0.207,-0.25C0.218,-0.217 0.232,-0.189 0.251,-0.168C0.269,-0.146 0.291,-0.13 0.315,-0.119C0.339,-0.108 0.366,-0.103 0.395,-0.103C0.432,-0.103 0.466,-0.112 0.497,-0.131C0.528,-0.149 0.553,-0.178 0.572,-0.217C0.59,-0.256 0.599,-0.303 0.599,-0.36Z" style="fill:#fafafa;fill-rule:nonzero;"/>
            </g>
        </g>
        <g transform="matrix(0.925758,0,0,0.925758,2.48315,24.2347)">
            <g transform="matrix(12,0,0,12,4.5434,13.6629)">
                <path d="M0.585,-0.113L0.469,-0.542L0.352,-0.113C0.343,-0.08 0.336,-0.057 0.33,-0.043C0.325,-0.029 0.316,-0.016 0.302,-0.005C0.289,0.007 0.271,0.012 0.249,0.012C0.231,0.012 0.216,0.009 0.205,0.002C0.193,-0.004 0.184,-0.014 0.177,-0.026C0.17,-0.038 0.164,-0.053 0.159,-0.07C0.155,-0.086 0.151,-0.102 0.147,-0.116L0.028,-0.598C0.021,-0.626 0.017,-0.647 0.017,-0.662C0.017,-0.681 0.024,-0.696 0.037,-0.709C0.05,-0.722 0.066,-0.728 0.085,-0.728C0.111,-0.728 0.129,-0.72 0.138,-0.703C0.147,-0.686 0.155,-0.661 0.162,-0.629L0.256,-0.211L0.361,-0.602C0.369,-0.632 0.376,-0.655 0.382,-0.67C0.388,-0.686 0.398,-0.7 0.412,-0.711C0.426,-0.722 0.445,-0.728 0.469,-0.728C0.494,-0.728 0.513,-0.722 0.526,-0.71C0.54,-0.698 0.549,-0.685 0.554,-0.671C0.559,-0.657 0.566,-0.634 0.575,-0.602L0.681,-0.211L0.775,-0.629C0.779,-0.651 0.784,-0.668 0.788,-0.68C0.792,-0.693 0.799,-0.704 0.809,-0.713C0.819,-0.723 0.833,-0.728 0.852,-0.728C0.871,-0.728 0.887,-0.722 0.9,-0.709C0.913,-0.697 0.92,-0.681 0.92,-0.662C0.92,-0.649 0.916,-0.627 0.909,-0.598L0.79,-0.116C0.782,-0.084 0.775,-0.06 0.77,-0.045C0.764,-0.03 0.755,-0.016 0.742,-0.005C0.73,0.007 0.711,0.012 0.688,0.012C0.666,0.012 0.648,0.007 0.635,-0.004C0.621,-0.015 0.612,-0.028 0.607,-0.042C0.602,-0.056 0.594,-0.079 0.585,-0.113Z" style="fill:#fafafa;fill-rule:nonzero;"/>
            </g>
        </g>
        <g transform="matrix(0.925758,0,0,0.925758,3.75516,33.6635)">
            <g transform="matrix(12,0,0,12,4.5434,13.6629)">
                <path d="M0.55,-0.604L0.223,-0.604L0.223,-0.428L0.524,-0.428C0.546,-0.428 0.563,-0.423 0.573,-0.413C0.584,-0.403 0.59,-0.39 0.59,-0.374C0.59,-0.358 0.584,-0.344 0.574,-0.334C0.563,-0.324 0.546,-0.319 0.524,-0.319L0.223,-0.319L0.223,-0.115L0.561,-0.115C0.584,-0.115 0.601,-0.11 0.613,-0.099C0.624,-0.089 0.63,-0.075 0.63,-0.057C0.63,-0.04 0.624,-0.026 0.613,-0.016C0.601,-0.005 0.584,-0 0.561,-0L0.167,-0C0.135,-0 0.113,-0.007 0.099,-0.021C0.085,-0.035 0.078,-0.058 0.078,-0.089L0.078,-0.627C0.078,-0.648 0.081,-0.665 0.087,-0.678C0.094,-0.691 0.103,-0.701 0.116,-0.707C0.13,-0.713 0.146,-0.716 0.167,-0.716L0.55,-0.716C0.573,-0.716 0.59,-0.711 0.601,-0.7C0.613,-0.69 0.618,-0.677 0.618,-0.66C0.618,-0.643 0.613,-0.63 0.601,-0.619C0.59,-0.609 0.573,-0.604 0.55,-0.604Z" style="fill:#fafafa;fill-rule:nonzero;"/>
            </g>
        </g>
        <g transform="matrix(0.925758,0,0,0.925758,3.52191,43.0451)">
            <g transform="matrix(12,0,0,12,4.5434,13.6629)">
                <path d="M0.273,-0.306L0.222,-0.306L0.222,-0.076C0.222,-0.046 0.215,-0.024 0.202,-0.009C0.189,0.005 0.171,0.012 0.15,0.012C0.127,0.012 0.109,0.005 0.096,-0.01C0.083,-0.025 0.077,-0.047 0.077,-0.076L0.077,-0.627C0.077,-0.658 0.084,-0.681 0.098,-0.695C0.112,-0.709 0.135,-0.716 0.166,-0.716L0.402,-0.716C0.434,-0.716 0.462,-0.714 0.485,-0.712C0.508,-0.709 0.529,-0.703 0.548,-0.695C0.57,-0.685 0.59,-0.672 0.607,-0.654C0.625,-0.637 0.638,-0.616 0.647,-0.593C0.656,-0.57 0.66,-0.545 0.66,-0.519C0.66,-0.466 0.645,-0.423 0.615,-0.391C0.585,-0.359 0.539,-0.337 0.478,-0.323C0.504,-0.31 0.528,-0.289 0.552,-0.263C0.575,-0.236 0.596,-0.208 0.615,-0.177C0.633,-0.147 0.647,-0.12 0.657,-0.096C0.668,-0.072 0.673,-0.055 0.673,-0.046C0.673,-0.036 0.67,-0.027 0.664,-0.018C0.658,-0.009 0.65,-0.001 0.639,0.004C0.629,0.01 0.617,0.012 0.603,0.012C0.587,0.012 0.573,0.008 0.562,0.001C0.551,-0.007 0.541,-0.017 0.533,-0.028C0.525,-0.04 0.515,-0.057 0.501,-0.08L0.443,-0.177C0.422,-0.212 0.403,-0.239 0.387,-0.258C0.371,-0.276 0.354,-0.289 0.337,-0.296C0.32,-0.303 0.299,-0.306 0.273,-0.306ZM0.356,-0.607L0.222,-0.607L0.222,-0.41L0.352,-0.41C0.387,-0.41 0.416,-0.413 0.44,-0.419C0.464,-0.425 0.482,-0.435 0.494,-0.45C0.507,-0.464 0.513,-0.484 0.513,-0.51C0.513,-0.53 0.508,-0.547 0.498,-0.562C0.488,-0.577 0.474,-0.589 0.456,-0.596C0.439,-0.603 0.406,-0.607 0.356,-0.607Z" style="fill:#fafafa;fill-rule:nonzero;"/>
            </g>
        </g>
    </g>
    <g id="Point" transform="matrix(0.904658,0,0,0.904658,1.68612,2.74772)">
        <g transform="matrix(0.925758,0,0,0.925758,17.8131,4.87511)">
            <g transform="matrix(12,0,0,12,4.5434,13.6629)">
                <path d="M0.356,-0.279L0.223,-0.279L0.223,-0.076C0.223,-0.047 0.216,-0.025 0.203,-0.01C0.189,0.005 0.172,0.012 0.151,0.012C0.129,0.012 0.111,0.005 0.098,-0.01C0.085,-0.025 0.078,-0.047 0.078,-0.075L0.078,-0.627C0.078,-0.659 0.085,-0.682 0.1,-0.695C0.115,-0.709 0.138,-0.716 0.17,-0.716L0.356,-0.716C0.411,-0.716 0.453,-0.712 0.483,-0.703C0.512,-0.695 0.538,-0.681 0.559,-0.663C0.58,-0.644 0.596,-0.621 0.607,-0.593C0.618,-0.566 0.624,-0.535 0.624,-0.501C0.624,-0.428 0.602,-0.373 0.557,-0.335C0.512,-0.298 0.445,-0.279 0.356,-0.279ZM0.321,-0.607L0.223,-0.607L0.223,-0.388L0.321,-0.388C0.355,-0.388 0.384,-0.392 0.406,-0.399C0.429,-0.406 0.447,-0.418 0.459,-0.434C0.471,-0.45 0.477,-0.472 0.477,-0.498C0.477,-0.53 0.468,-0.555 0.449,-0.575C0.428,-0.596 0.386,-0.607 0.321,-0.607Z" style="fill:#fafafa;fill-rule:nonzero;"/>
            </g>
        </g>
        <g transform="matrix(0.925758,0,0,0.925758,17.3195,14.6567)">
            <g transform="matrix(12,0,0,12,4.5434,13.6629)">
                <path d="M0.393,-0.728C0.467,-0.728 0.531,-0.713 0.584,-0.683C0.637,-0.653 0.678,-0.61 0.705,-0.554C0.732,-0.499 0.746,-0.434 0.746,-0.359C0.746,-0.304 0.739,-0.253 0.724,-0.208C0.709,-0.163 0.686,-0.124 0.656,-0.09C0.626,-0.057 0.59,-0.032 0.546,-0.014C0.502,0.003 0.452,0.012 0.396,0.012C0.34,0.012 0.29,0.003 0.246,-0.015C0.201,-0.033 0.164,-0.058 0.135,-0.091C0.105,-0.124 0.083,-0.164 0.068,-0.21C0.052,-0.256 0.045,-0.306 0.045,-0.36C0.045,-0.415 0.053,-0.465 0.069,-0.511C0.084,-0.557 0.107,-0.596 0.137,-0.628C0.167,-0.661 0.204,-0.685 0.247,-0.702C0.29,-0.719 0.338,-0.728 0.393,-0.728ZM0.599,-0.36C0.599,-0.412 0.591,-0.458 0.574,-0.496C0.557,-0.535 0.533,-0.564 0.501,-0.583C0.47,-0.603 0.434,-0.613 0.393,-0.613C0.364,-0.613 0.337,-0.607 0.313,-0.596C0.288,-0.586 0.267,-0.57 0.249,-0.549C0.232,-0.528 0.218,-0.501 0.207,-0.469C0.197,-0.437 0.192,-0.4 0.192,-0.36C0.192,-0.319 0.197,-0.282 0.207,-0.25C0.218,-0.217 0.232,-0.189 0.251,-0.168C0.269,-0.146 0.291,-0.13 0.315,-0.119C0.339,-0.108 0.366,-0.103 0.395,-0.103C0.432,-0.103 0.466,-0.112 0.497,-0.131C0.528,-0.149 0.553,-0.178 0.572,-0.217C0.59,-0.256 0.599,-0.303 0.599,-0.36Z" style="fill:#fafafa;fill-rule:nonzero;"/>
            </g>
        </g>
        <g transform="matrix(0.925758,0,0,0.925758,19.9747,24.1848)">
            <g transform="matrix(12,0,0,12,4.5434,13.6629)">
                <path d="M0.084,-0.076L0.084,-0.64C0.084,-0.669 0.091,-0.691 0.104,-0.706C0.117,-0.721 0.135,-0.728 0.156,-0.728C0.178,-0.728 0.195,-0.721 0.209,-0.706C0.222,-0.692 0.229,-0.67 0.229,-0.64L0.229,-0.076C0.229,-0.047 0.222,-0.024 0.209,-0.01C0.195,0.005 0.178,0.012 0.156,0.012C0.135,0.012 0.118,0.005 0.104,-0.01C0.091,-0.025 0.084,-0.047 0.084,-0.076Z" style="fill:#fafafa;fill-rule:nonzero;"/>
            </g>
        </g>
        <g transform="matrix(0.925758,0,0,0.925758,17.4957,33.6441)">
            <g transform="matrix(12,0,0,12,4.5434,13.6629)">
                <path d="M0.267,-0.641L0.546,-0.219L0.546,-0.645C0.546,-0.673 0.552,-0.693 0.564,-0.707C0.576,-0.721 0.592,-0.728 0.612,-0.728C0.633,-0.728 0.649,-0.721 0.661,-0.707C0.673,-0.693 0.679,-0.673 0.679,-0.645L0.679,-0.082C0.679,-0.019 0.653,0.012 0.601,0.012C0.588,0.012 0.576,0.01 0.566,0.007C0.556,0.003 0.546,-0.003 0.537,-0.011C0.528,-0.019 0.519,-0.029 0.511,-0.04C0.503,-0.051 0.496,-0.062 0.488,-0.073L0.216,-0.49L0.216,-0.071C0.216,-0.043 0.209,-0.023 0.197,-0.009C0.184,0.005 0.168,0.012 0.148,0.012C0.127,0.012 0.111,0.005 0.099,-0.009C0.086,-0.023 0.08,-0.044 0.08,-0.071L0.08,-0.623C0.08,-0.646 0.083,-0.665 0.088,-0.678C0.094,-0.693 0.104,-0.705 0.119,-0.714C0.133,-0.723 0.148,-0.728 0.165,-0.728C0.178,-0.728 0.189,-0.726 0.198,-0.722C0.208,-0.717 0.216,-0.712 0.223,-0.705C0.23,-0.697 0.237,-0.688 0.244,-0.677C0.252,-0.665 0.259,-0.653 0.267,-0.641Z" style="fill:#fafafa;fill-rule:nonzero;"/>
            </g>
        </g>
        <g transform="matrix(0.925758,0,0,0.925758,18.2362,43.2845)">
            <g transform="matrix(12,0,0,12,4.5434,13.6629)">
                <path d="M0.543,-0.596L0.385,-0.596L0.385,-0.076C0.385,-0.046 0.378,-0.024 0.365,-0.01C0.351,0.005 0.334,0.012 0.313,0.012C0.292,0.012 0.274,0.005 0.26,-0.01C0.247,-0.024 0.24,-0.047 0.24,-0.076L0.24,-0.596L0.082,-0.596C0.057,-0.596 0.039,-0.602 0.027,-0.613C0.015,-0.623 0.009,-0.638 0.009,-0.656C0.009,-0.674 0.015,-0.689 0.028,-0.7C0.04,-0.71 0.058,-0.716 0.082,-0.716L0.543,-0.716C0.568,-0.716 0.587,-0.71 0.599,-0.699C0.611,-0.688 0.617,-0.674 0.617,-0.656C0.617,-0.638 0.611,-0.623 0.599,-0.613C0.586,-0.602 0.568,-0.596 0.543,-0.596Z" style="fill:#fafafa;fill-rule:nonzero;"/>
            </g>
        </g>
    </g>
</svg>
