<?xml version="1.0" encoding="UTF-8" standalone="no"?>
<!DOCTYPE svg PUBLIC "-//W3C//DTD SVG 1.1//EN" "http://www.w3.org/Graphics/SVG/1.1/DTD/svg11.dtd">
<svg width="100%" height="100%" viewBox="0 0 64 64" version="1.1" xmlns="http://www.w3.org/2000/svg" xmlns:xlink="http://www.w3.org/1999/xlink" xml:space="preserve" xmlns:serif="http://www.serif.com/" style="fill-rule:evenodd;clip-rule:evenodd;stroke-linecap:round;stroke-linejoin:round;stroke-miterlimit:1.5;">
    <g id="Word-Icon" serif:id="Word Icon" transform="matrix(0.94106,0,0,0.94106,-344.822,-250.237)">
        <g id="Left-Book-Cover" serif:id="Left Book Cover" transform="matrix(1.00305,0,0,1,-1.12363,0)">
            <path d="M405.066,269.858L368.993,278.11L368.9,323.959L404.661,330.243L405.066,269.858Z" style="fill:#3b91ec;stroke:#3b91ec;stroke-width:2.12px;"/>
        </g>
        <g id="Right-Inside-Cover" serif:id="Right Inside Cover">
            <g transform="matrix(1.11579,0,0,1,-49.9352,0)">
                <path d="M406.165,275.828L431.26,276.107L430.928,323.984L406.089,323.875L406.165,275.828Z" style="fill:#fafafa;stroke:#3b91ec;stroke-width:2.01px;"/>
            </g>
            <g id="Book-Lines" serif:id="Book Lines" transform="matrix(1.10079,0,0,1,-43.4658,0)">
                <g id="Layer1">
                    <g transform="matrix(1,0,0,1,-0.201828,0.00542871)">
                        <path d="M425.988,283.879L406.267,283.754" style="fill:none;stroke:#3b91ec;stroke-width:2.02px;"/>
                    </g>
                    <g transform="matrix(1,0,0,1,-0.201828,4.14195)">
                        <path d="M425.988,283.879L406.267,283.754" style="fill:none;stroke:#3b91ec;stroke-width:2.02px;"/>
                    </g>
                    <g transform="matrix(1,0,0,1,-0.201828,8.27847)">
                        <path d="M425.988,283.879L406.267,283.754" style="fill:none;stroke:#3b91ec;stroke-width:2.02px;"/>
                    </g>
                    <g transform="matrix(1,0,0,1,-0.201828,12.415)">
                        <path d="M425.988,283.879L406.267,283.754" style="fill:none;stroke:#3b91ec;stroke-width:2.02px;"/>
                    </g>
                    <g transform="matrix(1,0,0,1,-0.201828,16.5515)">
                        <path d="M425.988,283.879L406.267,283.754" style="fill:none;stroke:#3b91ec;stroke-width:2.02px;"/>
                    </g>
                    <g transform="matrix(1,0,0,1,-0.201828,20.688)">
                        <path d="M425.988,283.879L406.267,283.754" style="fill:none;stroke:#3b91ec;stroke-width:2.02px;"/>
                    </g>
                    <g transform="matrix(1,0,0,1,-0.201828,24.8245)">
                        <path d="M425.988,283.879L406.267,283.754" style="fill:none;stroke:#3b91ec;stroke-width:2.02px;"/>
                    </g>
                    <g transform="matrix(1,0,0,1,-0.201828,28.9611)">
                        <path d="M425.988,283.879L406.267,283.754" style="fill:none;stroke:#3b91ec;stroke-width:2.02px;"/>
                    </g>
                    <g transform="matrix(1,0,0,1,-0.201828,33.0976)">
                        <path d="M425.988,283.879L406.267,283.754" style="fill:none;stroke:#3b91ec;stroke-width:2.02px;"/>
                    </g>
                </g>
                <g id="Layer2">
                </g>
                <g id="Layer3">
                </g>
                <g id="Layer4">
                </g>
                <g id="Layer5">
                </g>
            </g>
        </g>
        <g id="txt">
            <g transform="matrix(0.601372,0,0,0.601372,376.563,274.438)">
                <g transform="matrix(24.776,0,0,24.776,8.37327,30.2371)">
                    <path d="M0.543,-0.596L0.385,-0.596L0.385,-0.076C0.385,-0.046 0.378,-0.024 0.365,-0.01C0.351,0.005 0.334,0.012 0.313,0.012C0.292,0.012 0.274,0.005 0.26,-0.01C0.247,-0.024 0.24,-0.047 0.24,-0.076L0.24,-0.596L0.082,-0.596C0.057,-0.596 0.039,-0.602 0.027,-0.613C0.015,-0.623 0.009,-0.638 0.009,-0.656C0.009,-0.674 0.015,-0.689 0.028,-0.7C0.04,-0.71 0.058,-0.716 0.082,-0.716L0.543,-0.716C0.568,-0.716 0.587,-0.71 0.599,-0.699C0.611,-0.688 0.617,-0.674 0.617,-0.656C0.617,-0.638 0.611,-0.623 0.599,-0.613C0.586,-0.602 0.568,-0.596 0.543,-0.596Z" style="fill:#fafafa;fill-rule:nonzero;"/>
                </g>
            </g>
            <g transform="matrix(0.601372,0,0,0.601372,376.763,286.831)">
                <g transform="matrix(24.776,0,0,24.776,8.37327,30.2371)">
                    <path d="M0.052,-0.139L0.212,-0.373L0.077,-0.581C0.064,-0.601 0.055,-0.619 0.049,-0.633C0.042,-0.648 0.039,-0.661 0.039,-0.675C0.039,-0.688 0.045,-0.701 0.057,-0.712C0.07,-0.723 0.084,-0.728 0.102,-0.728C0.122,-0.728 0.138,-0.722 0.149,-0.71C0.16,-0.698 0.176,-0.676 0.196,-0.644L0.303,-0.47L0.418,-0.644C0.427,-0.659 0.435,-0.671 0.442,-0.682C0.449,-0.692 0.455,-0.701 0.461,-0.708C0.468,-0.714 0.475,-0.719 0.482,-0.723C0.49,-0.726 0.499,-0.728 0.509,-0.728C0.527,-0.728 0.542,-0.723 0.553,-0.712C0.565,-0.701 0.571,-0.688 0.571,-0.673C0.571,-0.651 0.558,-0.621 0.533,-0.584L0.392,-0.373L0.544,-0.139C0.558,-0.119 0.568,-0.102 0.574,-0.088C0.58,-0.075 0.583,-0.062 0.583,-0.05C0.583,-0.038 0.58,-0.028 0.575,-0.019C0.569,-0.009 0.561,-0.002 0.551,0.004C0.541,0.009 0.53,0.012 0.517,0.012C0.503,0.012 0.492,0.009 0.482,0.004C0.473,-0.002 0.465,-0.009 0.459,-0.018C0.454,-0.026 0.443,-0.042 0.427,-0.067L0.301,-0.265L0.167,-0.061C0.157,-0.045 0.149,-0.033 0.145,-0.027C0.14,-0.02 0.135,-0.014 0.129,-0.008C0.123,-0.002 0.115,0.003 0.107,0.007C0.098,0.01 0.089,0.012 0.077,0.012C0.06,0.012 0.045,0.007 0.033,-0.004C0.022,-0.015 0.016,-0.03 0.016,-0.051C0.016,-0.075 0.028,-0.104 0.052,-0.139Z" style="fill:#fafafa;fill-rule:nonzero;"/>
                </g>
            </g>
            <g transform="matrix(0.601372,0,0,0.601372,376.563,299.291)">
                <g transform="matrix(24.776,0,0,24.776,8.37327,30.2371)">
                    <path d="M0.543,-0.596L0.385,-0.596L0.385,-0.076C0.385,-0.046 0.378,-0.024 0.365,-0.01C0.351,0.005 0.334,0.012 0.313,0.012C0.292,0.012 0.274,0.005 0.26,-0.01C0.247,-0.024 0.24,-0.047 0.24,-0.076L0.24,-0.596L0.082,-0.596C0.057,-0.596 0.039,-0.602 0.027,-0.613C0.015,-0.623 0.009,-0.638 0.009,-0.656C0.009,-0.674 0.015,-0.689 0.028,-0.7C0.04,-0.71 0.058,-0.716 0.082,-0.716L0.543,-0.716C0.568,-0.716 0.587,-0.71 0.599,-0.699C0.611,-0.688 0.617,-0.674 0.617,-0.656C0.617,-0.638 0.611,-0.623 0.599,-0.613C0.586,-0.602 0.568,-0.596 0.543,-0.596Z" style="fill:#fafafa;fill-rule:nonzero;"/>
                </g>
            </g>
        </g>
    </g>
</svg>
