<?xml version="1.0" encoding="UTF-8" standalone="no"?>
<!DOCTYPE svg PUBLIC "-//W3C//DTD SVG 1.1//EN" "http://www.w3.org/Graphics/SVG/1.1/DTD/svg11.dtd">
<svg width="100%" height="100%" viewBox="0 0 64 64" version="1.1" xmlns="http://www.w3.org/2000/svg" xmlns:xlink="http://www.w3.org/1999/xlink" xml:space="preserve" xmlns:serif="http://www.serif.com/" style="fill-rule:evenodd;clip-rule:evenodd;stroke-linecap:round;stroke-linejoin:round;stroke-miterlimit:1.5;">
    <g id="Word-Icon" serif:id="Word Icon" transform="matrix(0.94106,0,0,0.94106,-344.822,-250.237)">
        <g id="Left-Book-Cover" serif:id="Left Book Cover" transform="matrix(1.00305,0,0,1,-1.12363,0)">
            <path d="M405.066,269.858L368.993,278.11L368.9,323.959L404.661,330.243L405.066,269.858Z" style="fill:#1565c0;stroke:#1565c0;stroke-width:2.12px;"/>
        </g>
        <g id="Right-Inside-Cover" serif:id="Right Inside Cover">
            <g transform="matrix(1.11579,0,0,1,-49.9352,0)">
                <path d="M406.165,275.828L431.26,276.107L430.928,323.984L406.089,323.875L406.165,275.828Z" style="fill:#f2f2f2;stroke:#1565c0;stroke-width:3.5px;"/>
            </g>
            <g id="Book-Lines" serif:id="Book Lines" transform="matrix(1.10079,0,0,1,-43.4658,0)">
                <g transform="matrix(1,0,0,1,-0.201828,0.00542871)">
                    <g id="Layer1">
                        <path d="M425.988,283.879L406.267,283.754" style="fill:none;stroke:#1565c0;stroke-width:3.5px;"/>
                    </g>
                </g>
                <g id="Layer2">
                    <path d="M425.751,291.82L405.577,291.875" style="fill:none;stroke:#1565c0;stroke-width:3.5px;"/>
                </g>
                <g id="Layer3">
                    <path d="M425.806,299.933L405.278,300.132" style="fill:none;stroke:#1565c0;stroke-width:3.5px;"/>
                </g>
                <g id="Layer4">
                    <path d="M425.763,307.94L405.714,307.886" style="fill:none;stroke:#1565c0;stroke-width:3.5px;"/>
                </g>
                <g id="Layer5">
                    <path d="M425.66,315.801L405.669,315.801" style="fill:none;stroke:#1565c0;stroke-width:3.5px;"/>
                </g>
            </g>
        </g>
        <g id="WORD">
            <g transform="matrix(0.601372,0,0,0.601372,374.412,269.936)">
                <g transform="matrix(24.776,0,0,24.776,8.37327,30.2371)">
                    <path d="M0.585,-0.113L0.469,-0.542L0.352,-0.113C0.343,-0.08 0.336,-0.057 0.33,-0.043C0.325,-0.029 0.316,-0.016 0.302,-0.005C0.289,0.007 0.271,0.012 0.249,0.012C0.231,0.012 0.216,0.009 0.205,0.002C0.193,-0.004 0.184,-0.014 0.177,-0.026C0.17,-0.038 0.164,-0.053 0.159,-0.07C0.155,-0.086 0.151,-0.102 0.147,-0.116L0.028,-0.598C0.021,-0.626 0.017,-0.647 0.017,-0.662C0.017,-0.681 0.024,-0.696 0.037,-0.709C0.05,-0.722 0.066,-0.728 0.085,-0.728C0.111,-0.728 0.129,-0.72 0.138,-0.703C0.147,-0.686 0.155,-0.661 0.162,-0.629L0.256,-0.211L0.361,-0.602C0.369,-0.632 0.376,-0.655 0.382,-0.67C0.388,-0.686 0.398,-0.7 0.412,-0.711C0.426,-0.722 0.445,-0.728 0.469,-0.728C0.494,-0.728 0.513,-0.722 0.526,-0.71C0.54,-0.698 0.549,-0.685 0.554,-0.671C0.559,-0.657 0.566,-0.634 0.575,-0.602L0.681,-0.211L0.775,-0.629C0.779,-0.651 0.784,-0.668 0.788,-0.68C0.792,-0.693 0.799,-0.704 0.809,-0.713C0.819,-0.723 0.833,-0.728 0.852,-0.728C0.871,-0.728 0.887,-0.722 0.9,-0.709C0.913,-0.697 0.92,-0.681 0.92,-0.662C0.92,-0.649 0.916,-0.627 0.909,-0.598L0.79,-0.116C0.782,-0.084 0.775,-0.06 0.77,-0.045C0.764,-0.03 0.755,-0.016 0.742,-0.005C0.73,0.007 0.711,0.012 0.688,0.012C0.666,0.012 0.648,0.007 0.635,-0.004C0.621,-0.015 0.612,-0.028 0.607,-0.042C0.602,-0.056 0.594,-0.079 0.585,-0.113Z" style="fill:#fafafa;fill-rule:nonzero;"/>
                </g>
            </g>
            <g transform="matrix(0.601372,0,0,0.601372,375.499,281.659)">
                <g transform="matrix(24.776,0,0,24.776,8.37327,30.2371)">
                    <path d="M0.393,-0.728C0.467,-0.728 0.531,-0.713 0.584,-0.683C0.637,-0.653 0.678,-0.61 0.705,-0.554C0.732,-0.499 0.746,-0.434 0.746,-0.359C0.746,-0.304 0.739,-0.253 0.724,-0.208C0.709,-0.163 0.686,-0.124 0.656,-0.09C0.626,-0.057 0.59,-0.032 0.546,-0.014C0.502,0.003 0.452,0.012 0.396,0.012C0.34,0.012 0.29,0.003 0.246,-0.015C0.201,-0.033 0.164,-0.058 0.135,-0.091C0.105,-0.124 0.083,-0.164 0.068,-0.21C0.052,-0.256 0.045,-0.306 0.045,-0.36C0.045,-0.415 0.053,-0.465 0.069,-0.511C0.084,-0.557 0.107,-0.596 0.137,-0.628C0.167,-0.661 0.204,-0.685 0.247,-0.702C0.29,-0.719 0.338,-0.728 0.393,-0.728ZM0.599,-0.36C0.599,-0.412 0.591,-0.458 0.574,-0.496C0.557,-0.535 0.533,-0.564 0.501,-0.583C0.47,-0.603 0.434,-0.613 0.393,-0.613C0.364,-0.613 0.337,-0.607 0.313,-0.596C0.288,-0.586 0.267,-0.57 0.249,-0.549C0.232,-0.528 0.218,-0.501 0.207,-0.469C0.197,-0.437 0.192,-0.4 0.192,-0.36C0.192,-0.319 0.197,-0.282 0.207,-0.25C0.218,-0.217 0.232,-0.189 0.251,-0.168C0.269,-0.146 0.291,-0.13 0.315,-0.119C0.339,-0.108 0.366,-0.103 0.395,-0.103C0.432,-0.103 0.466,-0.112 0.497,-0.131C0.528,-0.149 0.553,-0.178 0.572,-0.217C0.59,-0.256 0.599,-0.303 0.599,-0.36Z" style="fill:#fafafa;fill-rule:nonzero;"/>
                </g>
            </g>
            <g transform="matrix(0.601372,0,0,0.601372,375.805,293.255)">
                <g transform="matrix(24.776,0,0,24.776,8.37327,30.2371)">
                    <path d="M0.273,-0.306L0.222,-0.306L0.222,-0.076C0.222,-0.046 0.215,-0.024 0.202,-0.009C0.189,0.005 0.171,0.012 0.15,0.012C0.127,0.012 0.109,0.005 0.096,-0.01C0.083,-0.025 0.077,-0.047 0.077,-0.076L0.077,-0.627C0.077,-0.658 0.084,-0.681 0.098,-0.695C0.112,-0.709 0.135,-0.716 0.166,-0.716L0.402,-0.716C0.434,-0.716 0.462,-0.714 0.485,-0.712C0.508,-0.709 0.529,-0.703 0.548,-0.695C0.57,-0.685 0.59,-0.672 0.607,-0.654C0.625,-0.637 0.638,-0.616 0.647,-0.593C0.656,-0.57 0.66,-0.545 0.66,-0.519C0.66,-0.466 0.645,-0.423 0.615,-0.391C0.585,-0.359 0.539,-0.337 0.478,-0.323C0.504,-0.31 0.528,-0.289 0.552,-0.263C0.575,-0.236 0.596,-0.208 0.615,-0.177C0.633,-0.147 0.647,-0.12 0.657,-0.096C0.668,-0.072 0.673,-0.055 0.673,-0.046C0.673,-0.036 0.67,-0.027 0.664,-0.018C0.658,-0.009 0.65,-0.001 0.639,0.004C0.629,0.01 0.617,0.012 0.603,0.012C0.587,0.012 0.573,0.008 0.562,0.001C0.551,-0.007 0.541,-0.017 0.533,-0.028C0.525,-0.04 0.515,-0.057 0.501,-0.08L0.443,-0.177C0.422,-0.212 0.403,-0.239 0.387,-0.258C0.371,-0.276 0.354,-0.289 0.337,-0.296C0.32,-0.303 0.299,-0.306 0.273,-0.306ZM0.356,-0.607L0.222,-0.607L0.222,-0.41L0.352,-0.41C0.387,-0.41 0.416,-0.413 0.44,-0.419C0.464,-0.425 0.482,-0.435 0.494,-0.45C0.507,-0.464 0.513,-0.484 0.513,-0.51C0.513,-0.53 0.508,-0.547 0.498,-0.562C0.488,-0.577 0.474,-0.589 0.456,-0.596C0.439,-0.603 0.406,-0.607 0.356,-0.607Z" style="fill:#fafafa;fill-rule:nonzero;"/>
                </g>
            </g>
            <g transform="matrix(0.601372,0,0,0.601372,375.656,305.615)">
                <g transform="matrix(24.776,0,0,24.776,8.37327,30.2371)">
                    <path d="M0.168,-0.716L0.357,-0.716C0.406,-0.716 0.448,-0.711 0.483,-0.702C0.519,-0.693 0.55,-0.676 0.579,-0.651C0.654,-0.587 0.691,-0.49 0.691,-0.36C0.691,-0.317 0.687,-0.278 0.68,-0.242C0.672,-0.207 0.661,-0.175 0.645,-0.146C0.629,-0.118 0.609,-0.092 0.585,-0.07C0.566,-0.053 0.545,-0.039 0.522,-0.028C0.499,-0.018 0.475,-0.011 0.448,-0.006C0.422,-0.002 0.393,-0 0.36,-0L0.171,-0C0.145,-0 0.125,-0.004 0.111,-0.012C0.098,-0.02 0.089,-0.031 0.085,-0.046C0.081,-0.06 0.079,-0.079 0.079,-0.102L0.079,-0.627C0.079,-0.658 0.086,-0.681 0.1,-0.695C0.114,-0.709 0.137,-0.716 0.168,-0.716ZM0.224,-0.601L0.224,-0.115L0.334,-0.115C0.358,-0.115 0.377,-0.116 0.391,-0.117C0.404,-0.118 0.418,-0.122 0.433,-0.127C0.448,-0.132 0.46,-0.139 0.471,-0.149C0.52,-0.19 0.544,-0.261 0.544,-0.361C0.544,-0.431 0.533,-0.484 0.512,-0.52C0.491,-0.555 0.464,-0.577 0.433,-0.587C0.402,-0.596 0.364,-0.601 0.32,-0.601L0.224,-0.601Z" style="fill:#fafafa;fill-rule:nonzero;"/>
                </g>
            </g>
        </g>
    </g>
</svg>
