<?xml version="1.0" encoding="UTF-8" standalone="no"?>
<!DOCTYPE svg PUBLIC "-//W3C//DTD SVG 1.1//EN" "http://www.w3.org/Graphics/SVG/1.1/DTD/svg11.dtd">
<svg width="100%" height="100%" viewBox="0 0 64 64" version="1.1" xmlns="http://www.w3.org/2000/svg" xmlns:xlink="http://www.w3.org/1999/xlink" xml:space="preserve" xmlns:serif="http://www.serif.com/" style="fill-rule:evenodd;clip-rule:evenodd;stroke-linecap:round;stroke-linejoin:round;stroke-miterlimit:1.5;">
    <g id="XML-Icon" serif:id="XML Icon" transform="matrix(0.94106,0,0,0.94106,-344.822,-250.237)">
        <g id="Left-Book-Cover" serif:id="Left Book Cover" transform="matrix(1.00305,0,0,1,-1.12363,0)">
            <path d="M405.066,269.858L368.993,278.11L368.9,323.959L404.661,330.243L405.066,269.858Z" style="fill:#4398d1;stroke:#4398d1;stroke-width:2.12px;"/>
        </g>
        <g transform="matrix(1.11579,0,0,1,-49.9352,0)">
            <g id="Right-Inside-Cover" serif:id="Right Inside Cover">
                <path d="M406.165,275.828L431.26,276.107L430.928,323.984L406.089,323.875L406.165,275.828Z" style="fill:#fafafa;stroke:#4398d1;stroke-width:2.01px;"/>
            </g>
        </g>
        <g transform="matrix(1.06263,0,0,1.06263,365.396,265.92)">
            <g transform="matrix(11.3574,0,0,11.3574,40.4684,36.1438)">
                <path d="M0.537,-0.22L0.537,-0.082L0.046,-0.295L0.046,-0.413L0.537,-0.626L0.537,-0.487L0.195,-0.355L0.537,-0.22Z" style="fill:#4398d1;fill-rule:nonzero;"/>
            </g>
            <g transform="matrix(11.3574,0,0,11.3574,47.0898,36.1438)">
                <path d="M0.258,-0.629L0.121,-0.066C0.117,-0.047 0.113,-0.033 0.109,-0.022C0.106,-0.011 0.101,-0.003 0.094,0.003C0.087,0.009 0.076,0.012 0.063,0.012C0.03,0.012 0.013,-0.002 0.013,-0.031C0.013,-0.038 0.016,-0.057 0.023,-0.087L0.159,-0.65C0.166,-0.68 0.173,-0.7 0.18,-0.711C0.186,-0.722 0.199,-0.728 0.218,-0.728C0.234,-0.728 0.247,-0.724 0.255,-0.716C0.264,-0.708 0.268,-0.698 0.268,-0.684C0.268,-0.674 0.265,-0.656 0.258,-0.629Z" style="fill:#4398d1;fill-rule:nonzero;"/>
            </g>
            <g transform="matrix(11.3574,0,0,11.3574,50.2785,36.1438)">
                <path d="M0.537,-0.295L0.046,-0.081L0.046,-0.219L0.389,-0.354L0.046,-0.487L0.046,-0.624L0.537,-0.412L0.537,-0.295Z" style="fill:#4398d1;fill-rule:nonzero;"/>
            </g>
        </g>
        <g id="XML" transform="matrix(1.17717,0,0,1.17717,-54.8394,-52.6206)">
            <g transform="matrix(0.601372,0,0,0.601372,364.924,275.333)">
                <g transform="matrix(24.776,0,0,24.776,8.37327,30.2371)">
                    <path d="M0.052,-0.139L0.212,-0.373L0.077,-0.581C0.064,-0.601 0.055,-0.619 0.049,-0.633C0.042,-0.648 0.039,-0.661 0.039,-0.675C0.039,-0.688 0.045,-0.701 0.057,-0.712C0.07,-0.723 0.084,-0.728 0.102,-0.728C0.122,-0.728 0.138,-0.722 0.149,-0.71C0.16,-0.698 0.176,-0.676 0.196,-0.644L0.303,-0.47L0.418,-0.644C0.427,-0.659 0.435,-0.671 0.442,-0.682C0.449,-0.692 0.455,-0.701 0.461,-0.708C0.468,-0.714 0.475,-0.719 0.482,-0.723C0.49,-0.726 0.499,-0.728 0.509,-0.728C0.527,-0.728 0.542,-0.723 0.553,-0.712C0.565,-0.701 0.571,-0.688 0.571,-0.673C0.571,-0.651 0.558,-0.621 0.533,-0.584L0.392,-0.373L0.544,-0.139C0.558,-0.119 0.568,-0.102 0.574,-0.088C0.58,-0.075 0.583,-0.062 0.583,-0.05C0.583,-0.038 0.58,-0.028 0.575,-0.019C0.569,-0.009 0.561,-0.002 0.551,0.004C0.541,0.009 0.53,0.012 0.517,0.012C0.503,0.012 0.492,0.009 0.482,0.004C0.473,-0.002 0.465,-0.009 0.459,-0.018C0.454,-0.026 0.443,-0.042 0.427,-0.067L0.301,-0.265L0.167,-0.061C0.157,-0.045 0.149,-0.033 0.145,-0.027C0.14,-0.02 0.135,-0.014 0.129,-0.008C0.123,-0.002 0.115,0.003 0.107,0.007C0.098,0.01 0.089,0.012 0.077,0.012C0.06,0.012 0.045,0.007 0.033,-0.004C0.022,-0.015 0.016,-0.03 0.016,-0.051C0.016,-0.075 0.028,-0.104 0.052,-0.139Z" style="fill:#fff;fill-rule:nonzero;"/>
                </g>
            </g>
            <g transform="matrix(0.601372,0,0,0.601372,363.174,287.055)">
                <g transform="matrix(24.776,0,0,24.776,8.37327,30.2371)">
                    <path d="M0.32,-0.108L0.205,-0.564L0.205,-0.07C0.205,-0.042 0.199,-0.022 0.187,-0.008C0.175,0.005 0.158,0.012 0.138,0.012C0.119,0.012 0.103,0.005 0.09,-0.008C0.078,-0.022 0.072,-0.042 0.072,-0.07L0.072,-0.636C0.072,-0.667 0.08,-0.689 0.096,-0.699C0.112,-0.71 0.134,-0.716 0.162,-0.716L0.207,-0.716C0.234,-0.716 0.254,-0.713 0.266,-0.708C0.278,-0.704 0.287,-0.695 0.293,-0.682C0.299,-0.669 0.306,-0.649 0.313,-0.62L0.417,-0.228L0.521,-0.62C0.528,-0.649 0.535,-0.669 0.541,-0.682C0.547,-0.695 0.556,-0.704 0.568,-0.708C0.58,-0.713 0.6,-0.716 0.627,-0.716L0.672,-0.716C0.7,-0.716 0.722,-0.71 0.738,-0.699C0.754,-0.689 0.762,-0.667 0.762,-0.636L0.762,-0.07C0.762,-0.042 0.756,-0.022 0.744,-0.008C0.732,0.005 0.715,0.012 0.695,0.012C0.676,0.012 0.66,0.005 0.647,-0.008C0.635,-0.022 0.629,-0.042 0.629,-0.07L0.629,-0.564L0.514,-0.108C0.507,-0.078 0.501,-0.057 0.496,-0.043C0.491,-0.029 0.482,-0.016 0.47,-0.005C0.457,0.007 0.439,0.012 0.417,0.012C0.4,0.012 0.386,0.009 0.374,0.001C0.362,-0.006 0.353,-0.015 0.347,-0.027C0.34,-0.038 0.335,-0.051 0.331,-0.065C0.328,-0.079 0.324,-0.093 0.32,-0.108Z" style="fill:#fff;fill-rule:nonzero;"/>
                </g>
            </g>
            <g transform="matrix(0.601372,0,0,0.601372,364.455,298.651)">
                <g transform="matrix(24.776,0,0,24.776,8.37327,30.2371)">
                    <path d="M0.22,-0.64L0.22,-0.119L0.514,-0.119C0.538,-0.119 0.556,-0.113 0.568,-0.102C0.581,-0.091 0.587,-0.076 0.587,-0.059C0.587,-0.042 0.581,-0.027 0.568,-0.016C0.556,-0.005 0.538,-0 0.514,-0L0.164,-0C0.132,-0 0.11,-0.007 0.096,-0.021C0.082,-0.035 0.075,-0.058 0.075,-0.089L0.075,-0.64C0.075,-0.669 0.082,-0.691 0.095,-0.706C0.108,-0.721 0.125,-0.728 0.147,-0.728C0.169,-0.728 0.186,-0.721 0.2,-0.706C0.213,-0.692 0.22,-0.67 0.22,-0.64Z" style="fill:#fff;fill-rule:nonzero;"/>
                </g>
            </g>
        </g>
        <g id="csv-icon" serif:id="csv icon" transform="matrix(1.06263,0,0,1.06263,366.419,265.909)">
            <g transform="matrix(3.93988,0,0,0.432264,-134.841,8.4828)">
                <path d="M49.067,13.716C49.067,13.188 49.02,12.76 48.962,12.76L43.859,12.76C43.801,12.76 43.754,13.188 43.754,13.716L43.754,15.629C43.754,16.157 43.801,16.586 43.859,16.586L48.962,16.586C49.02,16.586 49.067,16.157 49.067,15.629L49.067,13.716Z" style="fill:#4398d1;stroke:#4398d1;stroke-width:0.07px;"/>
            </g>
            <g transform="matrix(3.93988,0,0,0.432264,-134.841,11.9742)">
                <path d="M49.067,13.716C49.067,13.188 49.02,12.76 48.962,12.76L43.859,12.76C43.801,12.76 43.754,13.188 43.754,13.716L43.754,15.629C43.754,16.157 43.801,16.586 43.859,16.586L48.962,16.586C49.02,16.586 49.067,16.157 49.067,15.629L49.067,13.716Z" style="fill:#4398d1;stroke:#4398d1;stroke-width:0.07px;"/>
            </g>
            <g transform="matrix(3.93988,0,0,0.432264,-134.841,15.4656)">
                <path d="M49.067,13.716C49.067,13.188 49.02,12.76 48.962,12.76L43.859,12.76C43.801,12.76 43.754,13.188 43.754,13.716L43.754,15.629C43.754,16.157 43.801,16.586 43.859,16.586L48.962,16.586C49.02,16.586 49.067,16.157 49.067,15.629L49.067,13.716Z" style="fill:#4398d1;stroke:#4398d1;stroke-width:0.07px;"/>
            </g>
            <g transform="matrix(3.93988,0,0,0.432264,-134.841,18.957)">
                <path d="M49.067,13.716C49.067,13.188 49.02,12.76 48.962,12.76L43.859,12.76C43.801,12.76 43.754,13.188 43.754,13.716L43.754,15.629C43.754,16.157 43.801,16.586 43.859,16.586L48.962,16.586C49.02,16.586 49.067,16.157 49.067,15.629L49.067,13.716Z" style="fill:#4398d1;stroke:#4398d1;stroke-width:0.07px;"/>
            </g>
            <g transform="matrix(3.93988,0,0,0.432264,-134.841,32.9225)">
                <path d="M49.067,13.716C49.067,13.188 49.02,12.76 48.962,12.76L43.859,12.76C43.801,12.76 43.754,13.188 43.754,13.716L43.754,15.629C43.754,16.157 43.801,16.586 43.859,16.586L48.962,16.586C49.02,16.586 49.067,16.157 49.067,15.629L49.067,13.716Z" style="fill:#4398d1;stroke:#4398d1;stroke-width:0.07px;"/>
            </g>
            <g transform="matrix(3.93988,0,0,0.432264,-134.841,36.4139)">
                <path d="M49.067,13.716C49.067,13.188 49.02,12.76 48.962,12.76L43.859,12.76C43.801,12.76 43.754,13.188 43.754,13.716L43.754,15.629C43.754,16.157 43.801,16.586 43.859,16.586L48.962,16.586C49.02,16.586 49.067,16.157 49.067,15.629L49.067,13.716Z" style="fill:#4398d1;stroke:#4398d1;stroke-width:0.07px;"/>
            </g>
            <g transform="matrix(3.93988,0,0,0.432264,-134.841,39.9053)">
                <path d="M49.067,13.716C49.067,13.188 49.02,12.76 48.962,12.76L43.859,12.76C43.801,12.76 43.754,13.188 43.754,13.716L43.754,15.629C43.754,16.157 43.801,16.586 43.859,16.586L48.962,16.586C49.02,16.586 49.067,16.157 49.067,15.629L49.067,13.716Z" style="fill:#4398d1;stroke:#4398d1;stroke-width:0.07px;"/>
            </g>
            <g transform="matrix(3.93988,0,0,0.432264,-134.841,43.3967)">
                <path d="M49.067,13.716C49.067,13.188 49.02,12.76 48.962,12.76L43.859,12.76C43.801,12.76 43.754,13.188 43.754,13.716L43.754,15.629C43.754,16.157 43.801,16.586 43.859,16.586L48.962,16.586C49.02,16.586 49.067,16.157 49.067,15.629L49.067,13.716Z" style="fill:#4398d1;stroke:#4398d1;stroke-width:0.07px;"/>
            </g>
        </g>
    </g>
</svg>
