<?xml version="1.0" encoding="UTF-8" standalone="no"?>
<!DOCTYPE svg PUBLIC "-//W3C//DTD SVG 1.1//EN" "http://www.w3.org/Graphics/SVG/1.1/DTD/svg11.dtd">
<svg width="100%" height="100%" viewBox="0 0 64 64" version="1.1" xmlns="http://www.w3.org/2000/svg" xmlns:xlink="http://www.w3.org/1999/xlink" xml:space="preserve" xmlns:serif="http://www.serif.com/" style="fill-rule:evenodd;clip-rule:evenodd;stroke-linecap:round;stroke-linejoin:round;stroke-miterlimit:1.5;">
    <g id="ZIP-Icon" serif:id="ZIP Icon" transform="matrix(0.94106,0,0,0.94106,-344.822,-250.237)">
        <g id="Left-Book-Cover" serif:id="Left Book Cover" transform="matrix(1.00305,0,0,1,-1.12363,0)">
            <path d="M405.066,269.858L368.993,278.11L368.9,323.959L404.661,330.243L405.066,269.858Z" style="fill:#ffbe00;stroke:#ffbe00;stroke-width:2.12px;"/>
        </g>
        <g transform="matrix(1.11579,0,0,1,-49.9352,0)">
            <g id="Right-Inside-Cover" serif:id="Right Inside Cover">
                <path d="M406.165,275.828L431.26,276.107L430.928,323.984L406.089,323.875L406.165,275.828Z" style="fill:#fafafa;stroke:#ffbe00;stroke-width:2.01px;"/>
            </g>
        </g>
        <g id="ZIP" transform="matrix(1.17717,0,0,1.17717,-67.2144,-52.6206)">
            <g transform="matrix(0.601372,0,0,0.601372,375.283,275.278)">
                <path d="M9.837,26.1L18.947,15.2L11.119,15.2C10.571,15.2 10.158,15.079 9.879,14.837C9.601,14.595 9.462,14.276 9.462,13.881C9.462,13.47 9.601,13.137 9.879,12.883C10.158,12.629 10.571,12.502 11.119,12.502L21.209,12.502C22.515,12.502 23.169,13.111 23.169,14.329C23.169,14.909 23.06,15.373 22.842,15.72C22.624,16.067 22.185,16.627 21.523,17.402L13.007,27.539L22.394,27.539C22.951,27.539 23.366,27.654 23.641,27.884C23.915,28.114 24.052,28.435 24.052,28.846C24.052,29.273 23.915,29.612 23.641,29.862C23.366,30.112 22.951,30.237 22.394,30.237L10.877,30.237C10.095,30.237 9.506,30.062 9.111,29.711C8.716,29.36 8.518,28.89 8.518,28.302C8.518,28.1 8.551,27.914 8.615,27.745C8.68,27.576 8.766,27.416 8.875,27.267C8.984,27.118 9.135,26.928 9.329,26.699C9.523,26.469 9.692,26.269 9.837,26.1Z" style="fill:#fafafa;fill-rule:nonzero;stroke:#ffbe00;stroke-width:1px;stroke-linecap:butt;stroke-miterlimit:2;"/>
            </g>
            <g transform="matrix(0.601372,0,0,0.601372,377.709,287.001)">
                <path d="M10.454,28.35L10.454,14.377C10.454,13.651 10.619,13.107 10.95,12.744C11.281,12.381 11.708,12.2 12.232,12.2C12.773,12.2 13.21,12.379 13.545,12.738C13.88,13.097 14.047,13.643 14.047,14.377L14.047,28.35C14.047,29.084 13.88,29.632 13.545,29.995C13.21,30.358 12.773,30.54 12.232,30.54C11.716,30.54 11.291,30.356 10.956,29.989C10.621,29.622 10.454,29.076 10.454,28.35Z" style="fill:#fafafa;fill-rule:nonzero;stroke:#ffbe00;stroke-width:1px;stroke-linecap:butt;stroke-miterlimit:2;"/>
            </g>
            <g transform="matrix(0.601372,0,0,0.601372,374.81,298.596)">
                <path d="M17.192,23.329L13.902,23.329L13.902,28.35C13.902,29.068 13.733,29.612 13.394,29.983C13.055,30.354 12.628,30.54 12.111,30.54C11.571,30.54 11.136,30.356 10.805,29.989C10.474,29.622 10.309,29.084 10.309,28.374L10.309,14.704C10.309,13.913 10.49,13.349 10.853,13.01C11.216,12.671 11.793,12.502 12.583,12.502L17.192,12.502C18.555,12.502 19.604,12.607 20.338,12.816C21.064,13.018 21.691,13.353 22.219,13.821C22.747,14.288 23.149,14.861 23.423,15.538C23.697,16.216 23.834,16.978 23.834,17.825C23.834,19.632 23.278,21.001 22.165,21.932C21.052,22.864 19.394,23.329 17.192,23.329ZM16.321,15.2L13.902,15.2L13.902,20.619L16.321,20.619C17.168,20.619 17.876,20.531 18.445,20.353C19.013,20.176 19.447,19.886 19.745,19.482C20.043,19.079 20.193,18.551 20.193,17.898C20.193,17.115 19.963,16.478 19.503,15.986C18.987,15.462 17.926,15.2 16.321,15.2Z" style="fill:#fafafa;fill-rule:nonzero;stroke:#ffbe00;stroke-width:1px;stroke-linecap:butt;stroke-miterlimit:2;"/>
            </g>
        </g>
        <g id="Zip" transform="matrix(1.06263,0,0,1.06263,366.419,265.909)">
            <g transform="matrix(0.77742,0,0,1.21599,10.9188,-14.5057)">
                <path d="M43.419,48.798C43.419,50.445 45.762,51.781 48.652,51.781C51.541,51.781 53.884,50.445 53.884,48.798" style="fill:none;stroke:#ffbe00;stroke-width:2.48px;"/>
            </g>
            <g transform="matrix(1,0,0,1,4.95901,-2.30711)">
                <rect x="43.754" y="12.76" width="5.313" height="3.826" style="fill:#ffbe00;"/>
            </g>
            <g transform="matrix(-1,0,0,1,92.4571,9.17869)">
                <rect x="43.754" y="12.76" width="5.313" height="3.826" style="fill:#ffbe00;"/>
            </g>
            <g transform="matrix(-1,0,0,1,92.4599,24.5094)">
                <rect x="43.754" y="12.76" width="5.313" height="3.826" style="fill:#ffbe00;"/>
            </g>
            <g transform="matrix(-2.00715,0,0,1,141.886,28.2802)">
                <rect x="43.754" y="12.76" width="5.313" height="3.826" style="fill:#ffbe00;"/>
            </g>
            <g transform="matrix(1,0,0,1,-0.345479,1.51619)">
                <rect x="43.754" y="12.76" width="5.313" height="3.826" style="fill:#ffbe00;"/>
            </g>
            <g transform="matrix(-1,0,0,1,97.7616,13.002)">
                <rect x="43.754" y="12.76" width="5.313" height="3.826" style="fill:#ffbe00;"/>
            </g>
            <g transform="matrix(1,0,0,1,4.97375,5.34042)">
                <rect x="43.754" y="12.76" width="5.313" height="3.826" style="fill:#ffbe00;"/>
            </g>
            <g transform="matrix(1,0,0,1,4.97651,20.6712)">
                <rect x="43.754" y="12.76" width="5.313" height="3.826" style="fill:#ffbe00;"/>
            </g>
            <g transform="matrix(-1,0,0,1,92.4424,16.8262)">
                <rect x="43.754" y="12.76" width="5.313" height="3.826" style="fill:#ffbe00;"/>
            </g>
        </g>
    </g>
</svg>
