<?xml version="1.0"?>
<svg xmlns="http://www.w3.org/2000/svg" xmlns:xlink="http://www.w3.org/1999/xlink" version="1.1" id="Capa_1" x="0px" y="0px" viewBox="0 0 512 512" style="enable-background:new 0 0 512 512;" xml:space="preserve" width="512px" height="512px" class=""><g><g>
	<g>
		<g>
			<path d="M376.818,434.927c-7.108-30.532-28.843-55.39-58.146-66.5l-55.535-21.06c-2.065-1.28-4.088-5.598-5.88-9.412     l-0.939-1.997c-0.384-0.811-0.367-2.185-0.171-3.157l68.651-0.009c1.758-0.085,43.315-2.381,63.462-19.806     c4.907-4.258,5.683-11.75,1.741-17.084c-15.94-21.453-68.079-97.51-69.589-175.505C320.344,119.202,312.937,0.964,196.201,0     C79.602,0.964,72.186,119.202,72.11,120.67c-1.502,77.67-53.606,153.728-69.538,175.189c-3.977,5.359-3.191,12.911,1.775,17.186     c20.156,17.374,61.636,19.661,63.821,19.755h68.25c0.205,0.947,0.205,2.304-0.205,3.14l-0.99,2.099     c-1.783,3.789-3.78,8.055-5.82,9.335l-55.535,21.052c-29.312,11.11-51.038,35.968-58.146,66.5L0.225,501.538     c-0.589,2.534,0.009,5.197,1.63,7.236C3.467,510.814,5.934,512,8.536,512h375.467c2.594,0,5.069-1.186,6.682-3.226     c1.613-2.039,2.219-4.702,1.621-7.236L376.818,434.927z" data-original="#000000" class="active-path" fill="#CB465F"/>
			<path d="M476.976,317.948l-57.438-35.994c-6.033-3.294-9.941-9.609-9.941-16.085v-23.364     c6.852-7.057,24.431-27.119,31.488-53.675c7.057-5.803,11.179-14.387,11.179-23.595v-29.474c0-6.912-3.004-13.858-8.533-19.883     l-0.008-39.543c-0.043-0.759-5.205-76.331-93.858-76.331c-27.426,0-46.66,7.433-60.083,16.973     c33.34,30.302,46.08,74.078,47.667,102.468c1.442,73.523,51.081,145.852,66.253,166.281c9.216,12.459,7.339,30.08-4.25,40.149     c-24.183,20.924-68.787,23.714-73.796,23.962h-7.859l6.921,2.628c27.435,10.402,49.101,31.087,61.158,57.139h117.589     c4.719,0,8.533-3.823,8.533-8.533v-23.868C511.997,352.525,498.591,329.843,476.976,317.948z" data-original="#000000" class="active-path" fill="#3083C9"/>
		</g>
	</g>
</g></g> </svg>
